<svg width="352" height="286" viewBox="0 0 352 286" fill="none" xmlns="http://www.w3.org/2000/svg">
<mask id="mask0_62_5585" style="mask-type:alpha" maskUnits="userSpaceOnUse" x="0" y="0" width="352" height="286">
<circle cx="176.32" cy="115.162" r="5.75" fill="#F2EDE8"/>
<circle cx="176.32" cy="87.2109" r="5.75" fill="#F2EDE8"/>
<circle cx="5.75" cy="5.75" r="5.75" transform="matrix(1 0 0 -1 170.57 177.686)" fill="#F2EDE8"/>
<circle cx="5.75" cy="5.75" r="5.75" transform="matrix(1 0 0 -1 170.57 205.32)" fill="#F2EDE8"/>
<circle cx="176.32" cy="143.55" r="6.24731" fill="#F2EDE8"/>
<circle cx="176.32" cy="59.5093" r="5.39404" fill="#F2EDE8"/>
<circle cx="176.32" cy="31.771" r="5.39404" fill="#F2EDE8"/>
<circle cx="5.39404" cy="5.39404" r="5.39404" transform="matrix(1 0 0 -1 170.926 232.242)" fill="#F2EDE8"/>
<circle cx="5.39404" cy="5.39404" r="5.39404" transform="matrix(1 0 0 -1 170.926 259.621)" fill="#F2EDE8"/>
<circle cx="176.32" cy="5.11694" r="4.66968" fill="#F2EDE8"/>
<circle cx="4.66968" cy="4.66968" r="4.66968" transform="matrix(1 0 0 -1 171.65 285.553)" fill="#F2EDE8"/>
<circle cx="146.528" cy="5.11621" r="4.07324" fill="#F2EDE8"/>
<circle cx="4.07324" cy="4.07324" r="4.07324" transform="matrix(1 0 0 -1 142.455 284.957)" fill="#F2EDE8"/>
<circle cx="4.07324" cy="4.07324" r="4.07324" transform="matrix(-1 0 0 1 209.754 1.04297)" fill="#F2EDE8"/>
<circle cx="205.681" cy="280.884" r="4.07324" transform="rotate(180 205.681 280.884)" fill="#F2EDE8"/>
<circle cx="117.59" cy="5.11621" r="3.47559" fill="#F2EDE8"/>
<circle cx="3.47559" cy="3.47559" r="3.47559" transform="matrix(1 0 0 -1 114.115 284.359)" fill="#F2EDE8"/>
<circle cx="3.47559" cy="3.47559" r="3.47559" transform="matrix(-1 0 0 1 237.516 1.64062)" fill="#F2EDE8"/>
<circle cx="234.041" cy="280.884" r="3.47559" transform="rotate(180 234.041 280.884)" fill="#F2EDE8"/>
<circle cx="88.3401" cy="5.11743" r="2.87915" fill="#F2EDE8"/>
<circle cx="2.87915" cy="2.87915" r="2.87915" transform="matrix(1 0 0 -1 85.4609 283.762)" fill="#F2EDE8"/>
<circle cx="2.87915" cy="2.87915" r="2.87915" transform="matrix(-1 0 0 1 266.111 2.23828)" fill="#F2EDE8"/>
<circle cx="263.232" cy="280.883" r="2.87915" transform="rotate(180 263.232 280.883)" fill="#F2EDE8"/>
<circle cx="59.3523" cy="5.11743" r="2.28149" fill="#F2EDE8"/>
<circle cx="2.28149" cy="2.28149" r="2.28149" transform="matrix(1 0 0 -1 57.0708 283.164)" fill="#F2EDE8"/>
<circle cx="2.28149" cy="2.28149" r="2.28149" transform="matrix(-1 0 0 1 294.769 2.83594)" fill="#F2EDE8"/>
<circle cx="292.487" cy="280.883" r="2.28149" transform="rotate(180 292.487 280.883)" fill="#F2EDE8"/>
<circle cx="30.2998" cy="5.11621" r="1.72754" fill="#F2EDE8"/>
<circle cx="1.72754" cy="1.72754" r="1.72754" transform="matrix(1 0 0 -1 28.5723 282.611)" fill="#F2EDE8"/>
<circle cx="1.72754" cy="1.72754" r="1.72754" transform="matrix(-1 0 0 1 323.438 3.38867)" fill="#F2EDE8"/>
<circle cx="321.71" cy="280.884" r="1.72754" transform="rotate(180 321.71 280.884)" fill="#F2EDE8"/>
<circle cx="1.39819" cy="5.11743" r="1.1311" fill="#F2EDE8"/>
<circle cx="1.1311" cy="1.1311" r="1.1311" transform="matrix(1 0 0 -1 0.26709 282.014)" fill="#F2EDE8"/>
<circle cx="1.1311" cy="1.1311" r="1.1311" transform="matrix(-1 0 0 1 352 3.98633)" fill="#F2EDE8"/>
<circle cx="350.869" cy="280.883" r="1.1311" transform="rotate(180 350.869 280.883)" fill="#F2EDE8"/>
<circle cx="205.681" cy="59.5088" r="4.75488" fill="#F2EDE8"/>
<circle cx="205.681" cy="31.7705" r="4.75488" fill="#F2EDE8"/>
<circle cx="4.75488" cy="4.75488" r="4.75488" transform="matrix(1 0 0 -1 200.926 231.602)" fill="#F2EDE8"/>
<circle cx="4.75488" cy="4.75488" r="4.75488" transform="matrix(1 0 0 -1 200.926 258.982)" fill="#F2EDE8"/>
<circle cx="234.041" cy="59.5093" r="3.94482" fill="#F2EDE8"/>
<circle cx="234.041" cy="31.771" r="3.94482" fill="#F2EDE8"/>
<circle cx="3.94482" cy="3.94482" r="3.94482" transform="matrix(1 0 0 -1 230.096 230.793)" fill="#F2EDE8"/>
<circle cx="3.94482" cy="3.94482" r="3.94482" transform="matrix(1 0 0 -1 230.096 258.172)" fill="#F2EDE8"/>
<circle cx="117.59" cy="59.5093" r="3.94482" fill="#F2EDE8"/>
<circle cx="117.59" cy="31.771" r="3.94482" fill="#F2EDE8"/>
<circle cx="3.94482" cy="3.94482" r="3.94482" transform="matrix(1 0 0 -1 113.645 230.793)" fill="#F2EDE8"/>
<circle cx="3.94482" cy="3.94482" r="3.94482" transform="matrix(1 0 0 -1 113.645 258.172)" fill="#F2EDE8"/>
<circle cx="88.3401" cy="59.5095" r="3.17749" fill="#F2EDE8"/>
<circle cx="88.3401" cy="31.7712" r="3.17749" fill="#F2EDE8"/>
<circle cx="3.17749" cy="3.17749" r="3.17749" transform="matrix(1 0 0 -1 85.1626 230.025)" fill="#F2EDE8"/>
<circle cx="3.17749" cy="3.17749" r="3.17749" transform="matrix(1 0 0 -1 85.1626 257.404)" fill="#F2EDE8"/>
<circle cx="3.17749" cy="3.17749" r="3.17749" transform="matrix(-1 0 0 1 237.218 56.332)" fill="#F2EDE8"/>
<circle cx="3.17749" cy="3.17749" r="3.17749" transform="matrix(-1 0 0 1 237.218 28.5938)" fill="#F2EDE8"/>
<circle cx="59.3528" cy="59.5105" r="2.4519" fill="#F2EDE8"/>
<circle cx="59.3528" cy="31.7703" r="2.4519" fill="#F2EDE8"/>
<circle cx="2.4519" cy="2.4519" r="2.4519" transform="matrix(1 0 0 -1 56.9009 229.299)" fill="#F2EDE8"/>
<circle cx="2.4519" cy="2.4519" r="2.4519" transform="matrix(1 0 0 -1 56.9009 256.68)" fill="#F2EDE8"/>
<circle cx="2.4519" cy="2.4519" r="2.4519" transform="matrix(-1 0 0 1 265.684 57.0586)" fill="#F2EDE8"/>
<circle cx="2.4519" cy="2.4519" r="2.4519" transform="matrix(-1 0 0 1 265.684 29.3184)" fill="#F2EDE8"/>
<circle cx="263.232" cy="226.847" r="2.4519" transform="rotate(180 263.232 226.847)" fill="#F2EDE8"/>
<circle cx="263.232" cy="254.228" r="2.4519" transform="rotate(180 263.232 254.228)" fill="#F2EDE8"/>
<circle cx="30.3" cy="59.5105" r="1.72729" fill="#F2EDE8"/>
<circle cx="30.3" cy="31.7703" r="1.72729" fill="#F2EDE8"/>
<circle cx="1.72729" cy="1.72729" r="1.72729" transform="matrix(1 0 0 -1 28.5728 228.574)" fill="#F2EDE8"/>
<circle cx="1.72729" cy="1.72729" r="1.72729" transform="matrix(1 0 0 -1 28.5728 255.955)" fill="#F2EDE8"/>
<circle cx="1.72729" cy="1.72729" r="1.72729" transform="matrix(-1 0 0 1 294.214 57.7832)" fill="#F2EDE8"/>
<circle cx="1.72729" cy="1.72729" r="1.72729" transform="matrix(-1 0 0 1 294.214 30.043)" fill="#F2EDE8"/>
<circle cx="292.487" cy="226.847" r="1.72729" transform="rotate(180 292.487 226.847)" fill="#F2EDE8"/>
<circle cx="292.487" cy="254.228" r="1.72729" transform="rotate(180 292.487 254.228)" fill="#F2EDE8"/>
<circle cx="1.39795" cy="59.5088" r="0.959961" fill="#F2EDE8"/>
<circle cx="1.39795" cy="31.7705" r="0.959961" fill="#F2EDE8"/>
<circle cx="0.959961" cy="0.959961" r="0.959961" transform="matrix(1 0 0 -1 0.437988 227.807)" fill="#F2EDE8"/>
<circle cx="0.959961" cy="0.959961" r="0.959961" transform="matrix(1 0 0 -1 0.437988 255.188)" fill="#F2EDE8"/>
<circle cx="0.959961" cy="0.959961" r="0.959961" transform="matrix(-1 0 0 1 351.829 58.5488)" fill="#F2EDE8"/>
<circle cx="0.959961" cy="0.959961" r="0.959961" transform="matrix(-1 0 0 1 351.829 30.8105)" fill="#F2EDE8"/>
<circle cx="350.869" cy="226.847" r="0.959961" transform="rotate(180 350.869 226.847)" fill="#F2EDE8"/>
<circle cx="350.869" cy="254.228" r="0.959961" transform="rotate(180 350.869 254.228)" fill="#F2EDE8"/>
<circle cx="0.959961" cy="0.959961" r="0.959961" transform="matrix(-1 0 0 1 322.67 58.5488)" fill="#F2EDE8"/>
<circle cx="0.959961" cy="0.959961" r="0.959961" transform="matrix(-1 0 0 1 322.67 30.8105)" fill="#F2EDE8"/>
<circle cx="321.71" cy="226.847" r="0.959961" transform="rotate(180 321.71 226.847)" fill="#F2EDE8"/>
<circle cx="321.71" cy="254.228" r="0.959961" transform="rotate(180 321.71 254.228)" fill="#F2EDE8"/>
<circle cx="117.59" cy="143.55" r="3.94482" fill="#F2EDE8"/>
<circle cx="88.3403" cy="143.549" r="3.58203" fill="#F2EDE8"/>
<circle cx="3.58203" cy="3.58203" r="3.58203" transform="matrix(-1 0 0 1 266.814 139.967)" fill="#F2EDE8"/>
<circle cx="59.3528" cy="143.551" r="2.64429" fill="#F2EDE8"/>
<circle cx="2.64429" cy="2.64429" r="2.64429" transform="matrix(-1 0 0 1 295.131 140.906)" fill="#F2EDE8"/>
<circle cx="30.3" cy="143.55" r="1.74878" fill="#F2EDE8"/>
<circle cx="1.74878" cy="1.74878" r="1.74878" transform="matrix(-1 0 0 1 323.459 141.801)" fill="#F2EDE8"/>
<circle cx="1.39771" cy="143.551" r="0.853271" fill="#F2EDE8"/>
<circle cx="0.853271" cy="0.853271" r="0.853271" transform="matrix(-1 0 0 1 351.722 142.697)" fill="#F2EDE8"/>
<circle cx="234.041" cy="143.55" r="3.94482" fill="#F2EDE8"/>
<circle cx="146.528" cy="59.5088" r="4.75488" fill="#F2EDE8"/>
<circle cx="146.528" cy="31.7705" r="4.75488" fill="#F2EDE8"/>
<circle cx="4.75488" cy="4.75488" r="4.75488" transform="matrix(1 0 0 -1 141.773 231.602)" fill="#F2EDE8"/>
<circle cx="4.75488" cy="4.75488" r="4.75488" transform="matrix(1 0 0 -1 141.773 258.982)" fill="#F2EDE8"/>
<circle cx="146.528" cy="143.55" r="4.75488" fill="#F2EDE8"/>
<circle cx="205.681" cy="143.55" r="4.75488" fill="#F2EDE8"/>
<circle cx="205.681" cy="115.164" r="5.39404" fill="#F2EDE8"/>
<circle cx="205.681" cy="87.2104" r="5.39404" fill="#F2EDE8"/>
<circle cx="5.39404" cy="5.39404" r="5.39404" transform="matrix(1 0 0 -1 200.287 177.33)" fill="#F2EDE8"/>
<circle cx="5.39404" cy="5.39404" r="5.39404" transform="matrix(1 0 0 -1 200.287 204.963)" fill="#F2EDE8"/>
<circle cx="146.528" cy="115.164" r="5.39404" fill="#F2EDE8"/>
<circle cx="146.528" cy="87.2104" r="5.39404" fill="#F2EDE8"/>
<circle cx="5.39404" cy="5.39404" r="5.39404" transform="matrix(1 0 0 -1 141.134 177.33)" fill="#F2EDE8"/>
<circle cx="5.39404" cy="5.39404" r="5.39404" transform="matrix(1 0 0 -1 141.134 204.963)" fill="#F2EDE8"/>
<circle cx="117.59" cy="115.162" r="4.54126" fill="#F2EDE8"/>
<circle cx="117.59" cy="87.2112" r="4.54126" fill="#F2EDE8"/>
<circle cx="4.54126" cy="4.54126" r="4.54126" transform="matrix(1 0 0 -1 113.049 176.477)" fill="#F2EDE8"/>
<circle cx="4.54126" cy="4.54126" r="4.54126" transform="matrix(1 0 0 -1 113.049 204.111)" fill="#F2EDE8"/>
<circle cx="88.3398" cy="115.164" r="3.646" fill="#F2EDE8"/>
<circle cx="88.3398" cy="87.2104" r="3.646" fill="#F2EDE8"/>
<circle cx="3.646" cy="3.646" r="3.646" transform="matrix(1 0 0 -1 84.6938 175.582)" fill="#F2EDE8"/>
<circle cx="3.646" cy="3.646" r="3.646" transform="matrix(1 0 0 -1 84.6938 203.215)" fill="#F2EDE8"/>
<circle cx="59.3523" cy="115.163" r="2.70825" fill="#F2EDE8"/>
<circle cx="59.3523" cy="87.2102" r="2.70825" fill="#F2EDE8"/>
<circle cx="2.70825" cy="2.70825" r="2.70825" transform="matrix(1 0 0 -1 56.644 174.645)" fill="#F2EDE8"/>
<circle cx="2.70825" cy="2.70825" r="2.70825" transform="matrix(1 0 0 -1 56.644 202.277)" fill="#F2EDE8"/>
<circle cx="2.70825" cy="2.70825" r="2.70825" transform="matrix(-1 0 0 1 265.94 112.455)" fill="#F2EDE8"/>
<circle cx="2.70825" cy="2.70825" r="2.70825" transform="matrix(-1 0 0 1 265.94 84.502)" fill="#F2EDE8"/>
<circle cx="263.232" cy="171.936" r="2.70825" transform="rotate(180 263.232 171.936)" fill="#F2EDE8"/>
<circle cx="263.232" cy="199.569" r="2.70825" transform="rotate(180 263.232 199.569)" fill="#F2EDE8"/>
<circle cx="30.2996" cy="115.162" r="1.81274" fill="#F2EDE8"/>
<circle cx="30.2996" cy="87.2112" r="1.81274" fill="#F2EDE8"/>
<circle cx="1.81274" cy="1.81274" r="1.81274" transform="matrix(1 0 0 -1 28.4868 173.748)" fill="#F2EDE8"/>
<circle cx="1.81274" cy="1.81274" r="1.81274" transform="matrix(1 0 0 -1 28.4868 201.383)" fill="#F2EDE8"/>
<circle cx="1.81274" cy="1.81274" r="1.81274" transform="matrix(-1 0 0 1 294.3 113.35)" fill="#F2EDE8"/>
<circle cx="1.81274" cy="1.81274" r="1.81274" transform="matrix(-1 0 0 1 294.3 85.3984)" fill="#F2EDE8"/>
<circle cx="292.487" cy="171.935" r="1.81274" transform="rotate(180 292.487 171.935)" fill="#F2EDE8"/>
<circle cx="292.487" cy="199.57" r="1.81274" transform="rotate(180 292.487 199.57)" fill="#F2EDE8"/>
<circle cx="1.39819" cy="115.163" r="0.917236" fill="#F2EDE8"/>
<circle cx="1.39819" cy="87.2102" r="0.917236" fill="#F2EDE8"/>
<circle cx="0.917236" cy="0.917236" r="0.917236" transform="matrix(1 0 0 -1 0.480957 172.854)" fill="#F2EDE8"/>
<circle cx="0.917236" cy="0.917236" r="0.917236" transform="matrix(1 0 0 -1 0.480957 200.486)" fill="#F2EDE8"/>
<circle cx="0.917236" cy="0.917236" r="0.917236" transform="matrix(-1 0 0 1 351.786 114.246)" fill="#F2EDE8"/>
<circle cx="0.917236" cy="0.917236" r="0.917236" transform="matrix(-1 0 0 1 351.786 86.293)" fill="#F2EDE8"/>
<circle cx="350.869" cy="171.936" r="0.917236" transform="rotate(180 350.869 171.936)" fill="#F2EDE8"/>
<circle cx="350.869" cy="199.569" r="0.917236" transform="rotate(180 350.869 199.569)" fill="#F2EDE8"/>
<circle cx="0.917236" cy="0.917236" r="0.917236" transform="matrix(-1 0 0 1 322.628 114.246)" fill="#F2EDE8"/>
<circle cx="0.917236" cy="0.917236" r="0.917236" transform="matrix(-1 0 0 1 322.628 86.293)" fill="#F2EDE8"/>
<circle cx="321.711" cy="171.936" r="0.917236" transform="rotate(180 321.711 171.936)" fill="#F2EDE8"/>
<circle cx="321.711" cy="199.569" r="0.917236" transform="rotate(180 321.711 199.569)" fill="#F2EDE8"/>
<circle cx="234.041" cy="115.162" r="4.54126" fill="#F2EDE8"/>
<circle cx="234.041" cy="87.2112" r="4.54126" fill="#F2EDE8"/>
<circle cx="4.54126" cy="4.54126" r="4.54126" transform="matrix(1 0 0 -1 229.5 176.477)" fill="#F2EDE8"/>
<circle cx="4.54126" cy="4.54126" r="4.54126" transform="matrix(1 0 0 -1 229.5 204.111)" fill="#F2EDE8"/>
</mask>
<g mask="url(#mask0_62_5585)">
<circle cx="175.65" cy="143" r="142.553" fill="#D9D9D9"/>
</g>
</svg>
