<svg width="496" height="497" viewBox="0 0 496 497" fill="none" xmlns="http://www.w3.org/2000/svg">
<path d="M194.625 464.808L242.73 416.703C245.749 413.685 250.553 413.685 253.571 416.703L301.674 464.808C304.693 467.826 304.693 472.63 301.674 475.648L283.196 494.126C280.794 496.528 277.037 497.082 274.019 495.358C258.005 486.304 238.357 486.304 222.343 495.358C219.325 497.021 215.567 496.528 213.165 494.126L194.687 475.648C191.669 472.63 191.669 467.826 194.687 464.808H194.625Z" fill="#300A0A"/>
<path d="M57.5173 363.669H125.517C129.767 363.669 133.154 367.118 133.154 371.307V439.306C133.154 443.556 129.705 446.944 125.517 446.944H99.4013C95.952 446.944 92.9342 444.665 92.0103 441.339C87.0828 423.6 73.2231 409.68 55.4226 404.752C52.0965 403.828 49.8181 400.81 49.8181 397.361V371.245C49.8181 366.995 53.2673 363.607 57.4557 363.607L57.5173 363.669Z" fill="#300A0A"/>
<path d="M32.0187 195.147L80.1221 243.252C83.1402 246.27 83.1402 251.074 80.1221 254.092L32.0187 302.197C29.0006 305.215 24.1962 305.215 21.1782 302.197L2.70008 283.719C0.297928 281.317 -0.257617 277.56 1.467 274.541C10.5213 258.527 10.5213 238.879 1.467 222.864C-0.196024 219.846 0.297928 216.089 2.70008 213.687L21.1782 195.209C24.1962 192.191 29.0006 192.191 32.0187 195.209V195.147Z" fill="#300A0A"/>
<path d="M133.155 58.0429V126.043C133.155 130.292 129.705 133.68 125.517 133.68H57.5174C53.2675 133.68 49.8799 130.231 49.8799 126.043V99.9265C49.8799 96.4773 52.1583 93.4595 55.4844 92.5356C73.2233 87.6081 87.1446 73.7493 92.0721 55.9488C92.996 52.6227 96.0138 50.3438 99.463 50.3438H125.579C129.829 50.3438 133.216 53.7931 133.216 57.9815L133.155 58.0429Z" fill="#300A0A"/>
<path d="M301.674 32.5422L253.571 80.6466C250.553 83.6647 245.748 83.6647 242.73 80.6466L194.625 32.5422C191.607 29.5242 191.607 24.7198 194.625 21.7017L213.103 3.22363C215.506 0.821476 219.263 0.267247 222.281 1.99187C238.295 11.0461 257.943 11.0461 273.957 1.99187C276.975 0.32884 280.732 0.821476 283.135 3.22363L301.613 21.7017C304.631 24.7198 304.631 29.5242 301.613 32.5422H301.674Z" fill="#300A0A"/>
<path d="M438.782 133.679H370.784C366.534 133.679 363.145 130.23 363.145 126.041V58.0418C363.145 53.7919 366.595 50.4043 370.784 50.4043H396.899C400.348 50.4043 403.366 52.6833 404.29 56.0093C409.218 73.7483 423.076 87.6683 440.876 92.5958C444.202 93.5197 446.481 96.5378 446.481 99.9871V126.103C446.481 130.353 443.032 133.741 438.843 133.741L438.782 133.679Z" fill="#300A0A"/>
<path d="M464.283 302.2L416.178 254.095C413.16 251.077 413.16 246.273 416.178 243.255L464.283 195.15C467.301 192.132 472.105 192.132 475.123 195.15L493.601 213.628C496.003 216.031 496.557 219.788 494.833 222.806C485.779 238.82 485.779 258.469 494.833 274.483C496.496 277.501 496.003 281.258 493.601 283.66L475.123 302.138C472.105 305.156 467.301 305.156 464.283 302.138V302.2Z" fill="#300A0A"/>
<path d="M363.144 439.305V371.306C363.144 367.056 366.595 363.668 370.783 363.668H438.781C443.031 363.668 446.419 367.117 446.419 371.306V397.422C446.419 400.871 444.14 403.889 440.814 404.812C423.075 409.74 409.156 423.599 404.228 441.399C403.304 444.725 400.286 447.004 396.837 447.004H370.722C366.472 447.004 363.084 443.555 363.084 439.367L363.144 439.305Z" fill="#300A0A"/>
</svg>
