<svg width="17" height="17" viewBox="0 0 17 17" fill="none" xmlns="http://www.w3.org/2000/svg">
<path d="M10.5 10.5H13.8333C14.2015 10.5 14.5 10.2015 14.5 9.83333V3.16667C14.5 2.79848 14.2015 2.5 13.8333 2.5L7.16667 2.5C6.79848 2.5 6.5 2.79848 6.5 3.16667L6.5 6.5" stroke="white" stroke-linecap="round" stroke-linejoin="round"/>
<path d="M3.16667 14.5L9.83333 14.5C10.2015 14.5 10.5 14.2015 10.5 13.8333L10.5 7.16667C10.5 6.79848 10.2015 6.5 9.83334 6.5L3.16667 6.5C2.79848 6.5 2.5 6.79848 2.5 7.16667L2.5 13.8333C2.5 14.2015 2.79848 14.5 3.16667 14.5Z" stroke="white" stroke-linecap="round" stroke-linejoin="round"/>
</svg>
