<svg width="73" height="72" viewBox="0 0 73 72" fill="none" xmlns="http://www.w3.org/2000/svg">
<g id="Group 1707479748">
<circle id="Ellipse 1609" cx="36.6602" cy="36" r="36" fill="#BFCCCF"/>
<g id="Group">
<g id="&#38;lt;Repeti&#195;&#131;&#194;&#167;&#195;&#131;&#194;&#163;o radial&#38;gt;">
<path id="Vector" d="M33.9857 46.7989L36.3893 44.3953C36.5401 44.2445 36.7801 44.2445 36.9309 44.3953L39.3344 46.7989C39.4852 46.9496 39.4852 47.1897 39.3344 47.3405L38.4112 48.2637C38.2911 48.3837 38.1034 48.4114 37.9526 48.3253C37.1525 47.8729 36.1708 47.8729 35.3706 48.3253C35.2198 48.4084 35.0321 48.3837 34.9121 48.2637L33.9888 47.3405C33.838 47.1897 33.838 46.9496 33.9888 46.7989H33.9857Z" fill="#300A0A"/>
</g>
<g id="&#38;lt;Repeti&#195;&#131;&#194;&#167;&#195;&#131;&#194;&#163;o radial&#38;gt;_2">
<path id="Vector_2" d="M27.1354 41.7458H30.533C30.7453 41.7458 30.9146 41.9181 30.9146 42.1274V45.5249C30.9146 45.7373 30.7423 45.9065 30.533 45.9065H29.2281C29.0558 45.9065 28.905 45.7927 28.8588 45.6265C28.6126 44.7402 27.9202 44.0447 27.0308 43.7985C26.8646 43.7523 26.7507 43.6015 26.7507 43.4292V42.1243C26.7507 41.912 26.9231 41.7427 27.1323 41.7427L27.1354 41.7458Z" fill="#300A0A"/>
</g>
<g id="&#38;lt;Repeti&#195;&#131;&#194;&#167;&#195;&#131;&#194;&#163;o radial&#38;gt;_3">
<path id="Vector_3" d="M25.8613 33.3258L28.2648 35.7294C28.4156 35.8802 28.4156 36.1202 28.2648 36.271L25.8613 38.6745C25.7105 38.8253 25.4704 38.8253 25.3196 38.6745L24.3964 37.7513C24.2764 37.6313 24.2486 37.4435 24.3348 37.2927C24.7872 36.4926 24.7872 35.5109 24.3348 34.7107C24.2517 34.5599 24.2764 34.3722 24.3964 34.2522L25.3196 33.3289C25.4704 33.1781 25.7105 33.1781 25.8613 33.3289V33.3258Z" fill="#300A0A"/>
</g>
<g id="&#38;lt;Repeti&#195;&#131;&#194;&#167;&#195;&#131;&#194;&#163;o radial&#38;gt;_4">
<path id="Vector_4" d="M30.9144 26.475V29.8726C30.9144 30.0849 30.7421 30.2542 30.5328 30.2542H27.1353C26.9229 30.2542 26.7537 30.0819 26.7537 29.8726V28.5677C26.7537 28.3954 26.8675 28.2446 27.0337 28.1984C27.92 27.9522 28.6156 27.2598 28.8618 26.3704C28.9079 26.2042 29.0587 26.0903 29.2311 26.0903H30.5359C30.7483 26.0903 30.9175 26.2627 30.9175 26.4719L30.9144 26.475Z" fill="#300A0A"/>
</g>
<g id="&#38;lt;Repeti&#195;&#131;&#194;&#167;&#195;&#131;&#194;&#163;o radial&#38;gt;_5">
<path id="Vector_5" d="M39.3346 25.2011L36.9311 27.6046C36.7803 27.7554 36.5402 27.7554 36.3894 27.6046L33.9859 25.2011C33.8351 25.0503 33.8351 24.8102 33.9859 24.6594L34.9092 23.7362C35.0292 23.6162 35.2169 23.5885 35.3677 23.6747C36.1678 24.127 37.1495 24.127 37.9497 23.6747C38.1005 23.5916 38.2882 23.6162 38.4082 23.7362L39.3315 24.6594C39.4823 24.8102 39.4823 25.0503 39.3315 25.2011H39.3346Z" fill="#300A0A"/>
</g>
<g id="&#38;lt;Repeti&#195;&#131;&#194;&#167;&#195;&#131;&#194;&#163;o radial&#38;gt;_6">
<path id="Vector_6" d="M46.1849 30.2545H42.7874C42.5751 30.2545 42.4058 30.0822 42.4058 29.8729V26.4754C42.4058 26.263 42.5782 26.0938 42.7874 26.0938H44.0923C44.2646 26.0938 44.4154 26.2076 44.4616 26.3738C44.7078 27.2601 45.4002 27.9556 46.2896 28.2018C46.4558 28.248 46.5696 28.3988 46.5696 28.5711V29.876C46.5696 30.0883 46.3973 30.2576 46.188 30.2576L46.1849 30.2545Z" fill="#300A0A"/>
</g>
<g id="&#38;lt;Repeti&#195;&#131;&#194;&#167;&#195;&#131;&#194;&#163;o radial&#38;gt;_7">
<path id="Vector_7" d="M47.4593 38.6742L45.0557 36.2707C44.9049 36.1199 44.9049 35.8798 45.0557 35.729L47.4593 33.3255C47.6101 33.1747 47.8501 33.1747 48.0009 33.3255L48.9242 34.2487C49.0442 34.3688 49.0719 34.5565 48.9857 34.7073C48.5333 35.5074 48.5333 36.4892 48.9857 37.2893C49.0688 37.4401 49.0442 37.6278 48.9242 37.7479L48.0009 38.6711C47.8501 38.8219 47.6101 38.8219 47.4593 38.6711V38.6742Z" fill="#300A0A"/>
</g>
<g id="&#38;lt;Repeti&#195;&#131;&#194;&#167;&#195;&#131;&#194;&#163;o radial&#38;gt;_8">
<path id="Vector_8" d="M42.4058 45.5248V42.1272C42.4058 41.9149 42.5782 41.7456 42.7875 41.7456H46.185C46.3974 41.7456 46.5666 41.9179 46.5666 42.1272V43.4321C46.5666 43.6044 46.4528 43.7552 46.2866 43.8014C45.4003 44.0476 44.7048 44.74 44.4586 45.6294C44.4124 45.7956 44.2616 45.9095 44.0893 45.9095H42.7844C42.5721 45.9095 42.4028 45.7371 42.4028 45.5279L42.4058 45.5248Z" fill="#300A0A"/>
</g>
</g>
</g>
</svg>
