<svg width="15" height="18" viewBox="0 0 15 18" fill="none" xmlns="http://www.w3.org/2000/svg">
<g id="elements">
<path id="Ellipse 1592" d="M3.33325 14C1.80915 14.3431 0.833252 14.8702 0.833252 15.4614C0.833252 16.4952 3.81802 17.3333 7.49992 17.3333C11.1818 17.3333 14.1666 16.4952 14.1666 15.4614C14.1666 14.8702 13.1907 14.3431 11.6666 14" stroke="white" stroke-linecap="round"/>
<path id="Ellipse 1590" d="M9.58317 6.50033C9.58317 7.65092 8.65043 8.58366 7.49984 8.58366C6.34924 8.58366 5.4165 7.65092 5.4165 6.50033C5.4165 5.34973 6.34924 4.41699 7.49984 4.41699C8.65043 4.41699 9.58317 5.34973 9.58317 6.50033Z" stroke="white"/>
<path id="Vector" d="M8.54767 13.5783C8.26661 13.849 7.89093 14.0003 7.49997 14.0003C7.109 14.0003 6.73333 13.849 6.45226 13.5783C3.87842 11.0843 0.429162 8.29827 2.11126 4.25344C3.02076 2.06643 5.20396 0.666992 7.49997 0.666992C9.79597 0.666992 11.9792 2.06643 12.8887 4.25344C14.5686 8.29317 11.1279 11.0929 8.54767 13.5783Z" stroke="white"/>
</g>
</svg>
