<svg width="86" height="85" viewBox="0 0 86 85" fill="none" xmlns="http://www.w3.org/2000/svg">
<rect x="1" y="0.5" width="84" height="84" rx="42" stroke="url(#paint0_linear_62_6707)"/>
<path d="M40.3249 53.2989L42.7284 50.8953C42.8792 50.7445 43.1193 50.7445 43.27 50.8953L45.6735 53.2989C45.8243 53.4496 45.8243 53.6897 45.6735 53.8405L44.7503 54.7637C44.6302 54.8837 44.4425 54.9114 44.2917 54.8253C43.4916 54.3729 42.5099 54.3729 41.7097 54.8253C41.5589 54.9084 41.3712 54.8837 41.2512 54.7637L40.3279 53.8405C40.1771 53.6897 40.1771 53.4496 40.3279 53.2989H40.3249Z" fill="#F5733D"/>
<path d="M33.4745 48.2453H36.8721C37.0844 48.2453 37.2537 48.4176 37.2537 48.6269V52.0244C37.2537 52.2368 37.0814 52.4061 36.8721 52.4061H35.5672C35.3949 52.4061 35.2441 52.2922 35.198 52.126C34.9518 51.2397 34.2593 50.5442 33.3699 50.298C33.2037 50.2518 33.0898 50.101 33.0898 49.9287V48.6238C33.0898 48.4115 33.2622 48.2422 33.4715 48.2422L33.4745 48.2453Z" fill="#F5733D"/>
<path d="M32.2006 39.8249L34.6041 42.2284C34.7549 42.3792 34.7549 42.6192 34.6041 42.77L32.2006 45.1736C32.0498 45.3244 31.8098 45.3244 31.659 45.1736L30.7358 44.2503C30.6157 44.1303 30.588 43.9426 30.6741 43.7918C31.1265 42.9916 31.1265 42.0099 30.6741 41.2097C30.5911 41.0589 30.6157 40.8712 30.7358 40.7512L31.659 39.8279C31.8098 39.6771 32.0498 39.6771 32.2006 39.8279V39.8249Z" fill="#F5733D"/>
<path d="M37.2536 32.9745V36.3721C37.2536 36.5844 37.0812 36.7537 36.8719 36.7537H33.4744C33.262 36.7537 33.0928 36.5814 33.0928 36.3721V35.0672C33.0928 34.8949 33.2066 34.7441 33.3728 34.6979C34.2591 34.4517 34.9547 33.7593 35.2009 32.8699C35.2471 32.7037 35.3978 32.5898 35.5702 32.5898H36.875C37.0874 32.5898 37.2566 32.7622 37.2566 32.9715L37.2536 32.9745Z" fill="#F5733D"/>
<path d="M45.6737 31.7006L43.2702 34.1041C43.1194 34.2549 42.8794 34.2549 42.7286 34.1041L40.325 31.7006C40.1742 31.5498 40.1742 31.3098 40.325 31.159L41.2483 30.2357C41.3683 30.1157 41.556 30.088 41.7068 30.1742C42.507 30.6266 43.4886 30.6266 44.2888 30.1742C44.4396 30.0911 44.6273 30.1157 44.7473 30.2357L45.6706 31.159C45.8214 31.3098 45.8214 31.5498 45.6706 31.7006H45.6737Z" fill="#F5733D"/>
<path d="M52.5243 36.7536H49.1268C48.9145 36.7536 48.7451 36.5812 48.7451 36.3719V32.9744C48.7451 32.762 48.9175 32.5928 49.1268 32.5928H50.4317C50.604 32.5928 50.7548 32.7066 50.8009 32.8728C51.0471 33.7591 51.7396 34.4547 52.629 34.7009C52.7951 34.747 52.909 34.8978 52.909 35.0702V36.375C52.909 36.5874 52.7366 36.7566 52.5274 36.7566L52.5243 36.7536Z" fill="#F5733D"/>
<path d="M53.7989 45.1737L51.3953 42.7702C51.2445 42.6194 51.2445 42.3793 51.3953 42.2285L53.7989 39.825C53.9497 39.6742 54.1897 39.6742 54.3405 39.825L55.2638 40.7483C55.3838 40.8683 55.4115 41.056 55.3253 41.2068C54.8729 42.007 54.8729 42.9887 55.3253 43.7888C55.4084 43.9396 55.3838 44.1274 55.2638 44.2474L54.3405 45.1706C54.1897 45.3214 53.9497 45.3214 53.7989 45.1706V45.1737Z" fill="#F5733D"/>
<path d="M48.7452 52.0243V48.6267C48.7452 48.4144 48.9176 48.2451 49.1269 48.2451H52.5244C52.7367 48.2451 52.906 48.4175 52.906 48.6267V49.9316C52.906 50.1039 52.7921 50.2547 52.626 50.3009C51.7396 50.5471 51.0441 51.2395 50.7979 52.1289C50.7518 52.2951 50.601 52.409 50.4287 52.409H49.1238C48.9114 52.409 48.7422 52.2366 48.7422 52.0274L48.7452 52.0243Z" fill="#F5733D"/>
<defs>
<linearGradient id="paint0_linear_62_6707" x1="23.1667" y1="80.75" x2="82.6667" y2="1.98333" gradientUnits="userSpaceOnUse">
<stop stop-color="white"/>
<stop offset="1" stop-color="white" stop-opacity="0"/>
</linearGradient>
</defs>
</svg>
