<svg width="49" height="48" viewBox="0 0 49 48" fill="none" xmlns="http://www.w3.org/2000/svg">
<path d="M19.2085 44.943L23.8697 40.2818C24.1621 39.9894 24.6277 39.9894 24.9201 40.2818L29.5812 44.943C29.8736 45.2355 29.8736 45.701 29.5812 45.9934L27.7907 47.7839C27.558 48.0166 27.1939 48.0703 26.9015 47.9032C25.3497 47.0259 23.4459 47.0259 21.8942 47.9032C21.6017 48.0644 21.2377 48.0166 21.0049 47.7839L19.2144 45.9934C18.922 45.701 18.922 45.2355 19.2144 44.943H19.2085Z" fill="#300A0A"/>
<path d="M5.92279 35.1446H12.5117C12.9235 35.1446 13.2518 35.4789 13.2518 35.8847V42.4737C13.2518 42.8855 12.9176 43.2137 12.5117 43.2137H9.98121C9.64699 43.2137 9.35458 42.9929 9.26505 42.6706C8.7876 40.9518 7.44463 39.6029 5.71981 39.1255C5.39753 39.036 5.17676 38.7435 5.17676 38.4093V35.8788C5.17676 35.467 5.51097 35.1387 5.91681 35.1387L5.92279 35.1446Z" fill="#300A0A"/>
<path d="M3.4521 18.8149L8.11317 23.4761C8.40562 23.7686 8.40562 24.2341 8.11317 24.5265L3.4521 29.1877C3.15965 29.4802 2.69413 29.4802 2.40168 29.1877L0.611213 27.3972C0.378452 27.1645 0.324622 26.8004 0.491732 26.508C1.36906 24.9562 1.36906 23.0524 0.491732 21.5006C0.33059 21.2082 0.378452 20.8441 0.611213 20.6114L2.40168 18.8209C2.69413 18.5285 3.15965 18.5285 3.4521 18.8209V18.8149Z" fill="#300A0A"/>
<path d="M13.2517 5.52923V12.1182C13.2517 12.53 12.9175 12.8582 12.5116 12.8582H5.92267C5.51086 12.8582 5.18262 12.524 5.18262 12.1182V9.58762C5.18262 9.2534 5.40339 8.96099 5.72567 8.87146C7.44452 8.394 8.79346 7.05113 9.27091 5.32631C9.36044 5.00403 9.65285 4.7832 9.98707 4.7832H12.5176C12.9294 4.7832 13.2577 5.11744 13.2577 5.52328L13.2517 5.52923Z" fill="#300A0A"/>
<path d="M29.5813 3.05943L24.9202 7.7206C24.6278 8.01305 24.1623 8.01305 23.8698 7.7206L19.2086 3.05943C18.9161 2.76699 18.9161 2.30146 19.2086 2.00902L20.9991 0.218551C21.2318 -0.0142098 21.5959 -0.0679129 21.8883 0.0991975C23.4401 0.976528 25.3439 0.976528 26.8956 0.0991975C27.188 -0.0619447 27.5521 -0.0142098 27.7849 0.218551L29.5753 2.00902C29.8678 2.30146 29.8678 2.76699 29.5753 3.05943H29.5813Z" fill="#300A0A"/>
<path d="M42.8666 12.8601H36.2778C35.866 12.8601 35.5376 12.5259 35.5376 12.12V5.53107C35.5376 5.11926 35.872 4.79102 36.2778 4.79102H38.8083C39.1425 4.79102 39.435 5.01184 39.5245 5.33413C40.0019 7.05298 41.3448 8.40178 43.0696 8.87924C43.3919 8.96876 43.6126 9.26121 43.6126 9.59543V12.126C43.6126 12.5378 43.2784 12.866 42.8726 12.866L42.8666 12.8601Z" fill="#300A0A"/>
<path d="M45.3366 29.1898L40.6754 24.5286C40.3829 24.2361 40.3829 23.7706 40.6754 23.4782L45.3366 18.817C45.6291 18.5245 46.0946 18.5245 46.387 18.817L48.1775 20.6075C48.4103 20.8402 48.4639 21.2043 48.2968 21.4967C47.4195 23.0485 47.4195 24.9523 48.2968 26.5041C48.458 26.7965 48.4103 27.1606 48.1775 27.3933L46.387 29.1838C46.0946 29.4762 45.6291 29.4762 45.3366 29.1838V29.1898Z" fill="#300A0A"/>
<path d="M35.5371 42.4735V35.8846C35.5371 35.4728 35.8714 35.1445 36.2773 35.1445H42.8661C43.2779 35.1445 43.6061 35.4787 43.6061 35.8846V38.4151C43.6061 38.7494 43.3854 39.0418 43.0631 39.1313C41.3442 39.6088 39.9954 40.9516 39.518 42.6764C39.4285 42.9987 39.136 43.2196 38.8018 43.2196H36.2713C35.8595 43.2196 35.5312 42.8854 35.5312 42.4795L35.5371 42.4735Z" fill="#300A0A"/>
</svg>
