<svg width="23" height="17" viewBox="0 0 23 17" fill="none" xmlns="http://www.w3.org/2000/svg">
<path id="&#226;&#128;&#156;" d="M9.84 11.6C9.84 14.24 8 16.24 5.2 16.24C2.4 16.24 0 14 0 10C0 5.04 3.76 0.799999 8.64 0V2.96C5.84 3.52 3.76 5.52 3.76 7.84C4.24 7.52 4.88 7.28 5.92 7.28C8 7.28 9.84 8.8 9.84 11.6ZM22.8 11.6C22.8 14.24 20.88 16.24 18.08 16.24C15.36 16.24 12.88 14 12.88 10C12.88 5.04 16.64 0.799999 21.6 0V2.96C18.8 3.52 16.72 5.52 16.72 7.76C17.2 7.44 17.92 7.28 18.88 7.28C20.96 7.28 22.8 8.8 22.8 11.6Z" fill="#F5733D"/>
</svg>
