<svg width="179" height="20" viewBox="0 0 179 20" fill="none" xmlns="http://www.w3.org/2000/svg">
<path d="M147.643 8.89585V5.34473H148.014V6.90144H150.029V5.34473H150.4V8.89585H150.029V7.22473H148.014V8.89585H147.643Z" fill="#F2EDE8"/>
<path d="M153.428 8.89585H151.298V5.34473H153.393V5.66552H151.668V6.90144H153.244V7.22225H151.668V8.57257H153.428V8.89336V8.89585Z" fill="#F2EDE8"/>
<path d="M156.334 7.91107H154.679L154.303 8.89585H153.938L155.317 5.34473H155.723L157.097 8.89585H156.707L156.337 7.91107H156.334ZM154.793 7.61018H156.217L155.511 5.74012L154.795 7.61018H154.793Z" fill="#F2EDE8"/>
<path d="M157.665 8.89585V5.34473H158.035V8.56261H159.691V8.89336H157.665V8.89585Z" fill="#F2EDE8"/>
<path d="M160.7 8.8963V5.6784H159.51V5.34766H162.256V5.6784H161.065V8.8963H160.7Z" fill="#F2EDE8"/>
<path d="M162.809 8.89585V5.34473H163.179V6.90144H165.195V5.34473H165.565V8.89585H165.195V7.22473H163.179V8.89585H162.809Z" fill="#F2EDE8"/>
<path d="M166.264 7.11571C166.264 6.07126 167.01 5.27051 167.999 5.27051C168.844 5.27051 169.54 5.83998 169.679 6.68549H169.289C169.175 6.05136 168.653 5.60374 167.999 5.60374C167.214 5.60374 166.644 6.24534 166.644 7.11571C166.644 7.98609 167.214 8.63762 167.999 8.63762C168.655 8.63762 169.18 8.18254 169.289 7.5509H169.679C169.54 8.39641 168.844 8.97084 167.999 8.97084C167.01 8.97084 166.264 8.16514 166.264 7.11571Z" fill="#F2EDE8"/>
<path d="M172.322 7.91107H170.667L170.292 8.89585H169.926L171.306 5.34473H171.711L173.085 8.89585H172.695L172.325 7.91107H172.322ZM170.781 7.61018H172.205L171.5 5.74012L170.784 7.61018H170.781Z" fill="#F2EDE8"/>
<path d="M173.653 8.89585V5.34473H174.918C175.669 5.34473 176.138 5.73514 176.138 6.419C176.138 6.95366 175.788 7.35404 175.229 7.44854L176.233 8.89834H175.788L174.833 7.4933H174.023V8.89834H173.653V8.89585ZM174.023 7.17996H174.888C175.432 7.17996 175.768 6.91387 175.768 6.419C175.768 5.92413 175.432 5.65805 174.888 5.65805H174.023V7.17996Z" fill="#F2EDE8"/>
<path d="M179 8.89585H176.87V5.34473H178.965V5.66552H177.24V6.90144H178.816V7.22225H177.24V8.57257H179V8.89336V8.89585Z" fill="#F2EDE8"/>
<path d="M148.844 14.8342C148.018 14.8342 147.534 14.3741 147.499 13.7027H147.874C147.909 14.2075 148.225 14.5333 148.839 14.5333C149.343 14.5333 149.738 14.2771 149.738 13.8519C149.738 13.4864 149.53 13.3172 149.028 13.2128L148.578 13.1233C148.108 13.0288 147.613 12.8124 147.613 12.1932C147.613 11.6238 148.113 11.1836 148.819 11.1836C149.525 11.1836 150.044 11.6188 150.084 12.2952H149.704C149.679 11.8252 149.333 11.4845 148.824 11.4845C148.279 11.4845 147.989 11.8152 147.989 12.1708C147.989 12.5911 148.344 12.7204 148.739 12.8L149.189 12.8945C149.788 13.0188 150.129 13.265 150.129 13.7997C150.129 14.3642 149.669 14.8342 148.844 14.8342Z" fill="#F2EDE8"/>
<path d="M153.02 14.7845H150.89V11.2334H152.985V11.5542H151.26V12.7901H152.836V13.1109H151.26V14.4612H153.02V14.782V14.7845Z" fill="#F2EDE8"/>
<path d="M153.662 14.7845V11.2334H154.927C155.678 11.2334 156.148 11.6238 156.148 12.3077C156.148 12.8423 155.797 13.2427 155.238 13.3372L156.242 14.787H155.797L154.843 13.382H154.032V14.787H153.662V14.7845ZM154.032 13.0686H154.897C155.442 13.0686 155.777 12.8026 155.777 12.3077C155.777 11.8128 155.442 11.5467 154.897 11.5467H154.032V13.0686Z" fill="#F2EDE8"/>
<path d="M158.224 14.7845H157.819L156.494 11.2334H156.879L158.025 14.3593L159.181 11.2334H159.551L158.221 14.7845H158.224Z" fill="#F2EDE8"/>
<path d="M160.109 14.7845V11.2334H160.479V14.7845H160.109Z" fill="#F2EDE8"/>
<path d="M161.175 13.0044C161.175 11.9599 161.921 11.1592 162.91 11.1592C163.755 11.1592 164.451 11.7287 164.59 12.5742H164.2C164.086 11.94 163.561 11.4924 162.91 11.4924C162.125 11.4924 161.555 12.134 161.555 13.0044C161.555 13.8748 162.125 14.5263 162.91 14.5263C163.566 14.5263 164.091 14.0712 164.2 13.4396H164.59C164.451 14.2851 163.755 14.8595 162.91 14.8595C161.921 14.8595 161.175 14.0538 161.175 13.0044Z" fill="#F2EDE8"/>
<path d="M167.41 14.7845H165.28V11.2334H167.375V11.5542H165.65V12.7901H167.226V13.1109H165.65V14.4612H167.41V14.782V14.7845Z" fill="#F2EDE8"/>
<path d="M169.197 14.8342C168.372 14.8342 167.888 14.3741 167.853 13.7027H168.228C168.263 14.2075 168.579 14.5333 169.193 14.5333C169.697 14.5333 170.092 14.2771 170.092 13.8519C170.092 13.4864 169.886 13.3172 169.381 13.2128L168.932 13.1233C168.462 13.0288 167.967 12.8124 167.967 12.1932C167.967 11.6238 168.467 11.1836 169.173 11.1836C169.878 11.1836 170.398 11.6188 170.438 12.2952H170.057C170.033 11.8252 169.687 11.4845 169.178 11.4845C168.633 11.4845 168.342 11.8152 168.342 12.1708C168.342 12.5911 168.698 12.7204 169.093 12.8L169.543 12.8945C170.142 13.0188 170.482 13.265 170.482 13.7997C170.482 14.3642 170.023 14.8342 169.197 14.8342Z" fill="#F2EDE8"/>
<path d="M7.83692 18.726L9.77858 16.7838C9.9004 16.6619 10.0943 16.6619 10.2161 16.7838L12.1577 18.726C12.2796 18.8478 12.2796 19.0418 12.1577 19.1636L11.4119 19.9096C11.315 20.0066 11.1633 20.029 11.0415 19.9594C10.3951 19.5938 9.60206 19.5938 8.95567 19.9594C8.83385 20.0265 8.6822 20.0066 8.58524 19.9096L7.83941 19.1636C7.71759 19.0418 7.71759 18.8478 7.83941 18.726H7.83692Z" fill="#F2EDE8"/>
<path d="M2.30288 14.6431H5.04688C5.21838 14.6431 5.35508 14.7824 5.35508 14.9515V17.6969C5.35508 17.8685 5.21589 18.0053 5.04688 18.0053H3.99303C3.85384 18.0053 3.73206 17.9132 3.69478 17.779C3.49594 17.0628 2.93666 16.5008 2.21835 16.3018C2.08413 16.2645 1.99219 16.1427 1.99219 16.0034V14.949C1.99219 14.7774 2.13137 14.6406 2.30039 14.6406L2.30288 14.6431Z" fill="#F2EDE8"/>
<path d="M1.27334 7.8389L3.21447 9.78108C3.33626 9.90293 3.33626 10.0969 3.21447 10.2188L1.27334 12.1609C1.15155 12.2828 0.957679 12.2828 0.835889 12.1609L0.0902384 11.4149C-0.00669618 11.3179 -0.0291142 11.1662 0.0404798 11.0444C0.405849 10.3978 0.405849 9.60452 0.0404798 8.95795C-0.0266287 8.8361 -0.00669618 8.68441 0.0902384 8.58742L0.835889 7.84139C0.957679 7.71954 1.15155 7.71954 1.27334 7.84139V7.8389Z" fill="#F2EDE8"/>
<path d="M5.35503 2.30304V5.04846C5.35503 5.22004 5.21585 5.35681 5.04683 5.35681H2.30283C2.13133 5.35681 1.99463 5.21756 1.99463 5.04846V3.99405C1.99463 3.85479 2.08657 3.73295 2.22079 3.69564C2.93661 3.4967 3.49838 2.93717 3.69722 2.21849C3.7345 2.0842 3.85628 1.99219 3.99547 1.99219H5.04932C5.22082 1.99219 5.35752 2.13145 5.35752 2.30055L5.35503 2.30304Z" fill="#F2EDE8"/>
<path d="M12.1578 1.27396L10.2162 3.21613C10.0944 3.33798 9.90045 3.33798 9.77863 3.21613L7.83697 1.27396C7.71515 1.15211 7.71515 0.958138 7.83697 0.836285L8.5828 0.09025C8.67976 -0.0067346 8.83141 -0.0291111 8.95323 0.0405189C9.59961 0.406076 10.3927 0.406076 11.039 0.0405189C11.1609 -0.0266243 11.3125 -0.0067346 11.4095 0.09025L12.1553 0.836285C12.2771 0.958138 12.2771 1.15211 12.1553 1.27396H12.1578Z" fill="#F2EDE8"/>
<path d="M17.6909 5.35725H14.9469C14.7754 5.35725 14.6387 5.218 14.6387 5.0489V2.30348C14.6387 2.13189 14.7779 1.99512 14.9469 1.99512H16.0008C16.14 1.99512 16.2617 2.08713 16.299 2.22142C16.4979 2.93761 17.0571 3.49962 17.7754 3.69856C17.9096 3.73586 18.0016 3.85772 18.0016 3.99698V5.05137C18.0016 5.22296 17.8624 5.35974 17.6934 5.35974L17.6909 5.35725Z" fill="#F2EDE8"/>
<path d="M18.7205 12.1615L16.7793 10.2193C16.6575 10.0974 16.6575 9.90347 16.7793 9.78161L18.7205 7.83944C18.8423 7.71758 19.0362 7.71758 19.158 7.83944L19.9036 8.58547C20.0006 8.68246 20.0229 8.83415 19.9533 8.956C19.588 9.60256 19.588 10.3959 19.9533 11.0424C20.0204 11.1643 20.0006 11.316 19.9036 11.4129L19.158 12.159C19.0362 12.2808 18.8423 12.2808 18.7205 12.159V12.1615Z" fill="#F2EDE8"/>
<path d="M14.6387 17.6964V14.9509C14.6387 14.7793 14.7779 14.6426 14.9469 14.6426H17.6909C17.8624 14.6426 17.9991 14.7818 17.9991 14.9509V16.0053C17.9991 16.1446 17.9071 16.2664 17.7729 16.3037C17.0571 16.5027 16.4954 17.0622 16.2965 17.7809C16.2592 17.9152 16.1375 18.0072 15.9983 18.0072H14.9444C14.7729 18.0072 14.6362 17.8679 14.6362 17.6988L14.6387 17.6964Z" fill="#F2EDE8"/>
<path d="M25.9058 2.25879H33.2273C36.6457 2.25879 38.5178 4.9843 38.5178 7.48104C38.5178 9.97777 36.7626 12.6784 33.389 12.6784H27.7306V17.739H25.9058V2.25879ZM32.7202 10.9924C35.4226 10.9924 36.6706 9.25909 36.6706 7.48104C36.6706 5.70299 35.2858 3.94484 33.1826 3.94484H27.7306V10.9924H32.7202Z" fill="#F2EDE8"/>
<path d="M40.3775 2.25781H48.0695C51.1871 2.25781 52.8975 4.59291 52.8975 6.74149C52.8975 9.00695 51.2119 11.2923 47.9775 11.2923H46.5679L53.4047 17.738H50.7943L44.0943 11.2923C43.0774 10.3225 42.707 10.0439 42.1998 10.0216V17.738H40.375V2.25781H40.3775ZM47.4231 9.69827C50.0335 9.69827 51.12 8.21864 51.12 6.74149C51.12 5.26434 49.8943 3.94633 48.0247 3.94633H42.2048V9.70076H47.4256L47.4231 9.69827Z" fill="#F2EDE8"/>
<path d="M55.3735 2.25835H67.1552V3.9444H57.1984V8.95775H66.1384V10.6214H57.1984V16.0501H67.1552V17.7361H55.3735V2.25586V2.25835Z" fill="#F2EDE8"/>
<path d="M68.3086 9.95294C68.3086 5.28524 71.9134 1.93555 76.6718 1.93555C79.0286 1.93555 80.9902 2.79099 82.3775 4.33777V6.99366H82.1462C81.5694 5.19074 79.4662 3.66635 76.6718 3.66635C72.7438 3.66635 70.1582 6.41674 70.1582 9.92808C70.1582 13.4394 72.7463 16.3291 76.9031 16.3291C80.1126 16.3291 82.3998 14.2725 82.3998 11.823H82.6783V13.3947C82.6783 16.5131 79.8839 18.0623 76.6967 18.0623C71.9159 18.0623 68.3111 14.6654 68.3111 9.95294H68.3086Z" fill="#F2EDE8"/>
<path d="M85.3066 2.25781H87.1544V17.738H85.3066V2.25781Z" fill="#F2EDE8"/>
<path d="M90.0025 12.9346V10.7164H90.2809C90.2809 13.9741 93.2618 16.3763 96.4489 16.3763C99.129 16.3763 100.723 15.1056 100.723 13.5812C100.723 12.2184 99.937 11.5942 98.0426 11.0397L93.7466 9.81368C91.8298 9.25913 90.1193 8.19726 90.1193 6.14069C90.1193 3.8056 92.3817 1.93555 96.3321 1.93555C99.7505 1.93555 102.222 3.73846 102.222 5.67815V8.35892H101.943C101.943 6.09594 99.7033 3.62158 95.9144 3.62158C93.2593 3.62158 91.9417 4.8227 91.9417 6.09344C91.9417 7.13292 92.9361 7.73473 94.4128 8.17241L98.756 9.42076C100.628 9.95293 102.59 10.9452 102.59 13.417C102.59 16.0282 99.9792 18.0623 96.352 18.0623C92.7248 18.0623 90 16.6996 90 12.9321L90.0025 12.9346Z" fill="#F2EDE8"/>
<path d="M105.218 2.25781H107.065V17.738H105.218V2.25781Z" fill="#F2EDE8"/>
<path d="M109.514 9.95294C109.514 5.40212 112.979 1.93555 117.576 1.93555C122.173 1.93555 125.639 5.40212 125.639 9.95294C125.639 14.5038 122.173 18.0623 117.576 18.0623C112.979 18.0623 109.514 14.551 109.514 9.95294ZM123.789 9.95294C123.789 6.51123 121.318 3.64646 117.576 3.64646C113.835 3.64646 111.363 6.51123 111.363 9.95294C111.363 13.3946 113.835 16.3539 117.576 16.3539C121.318 16.3539 123.789 13.4891 123.789 9.95294Z" fill="#F2EDE8"/>
<path d="M129.92 3.23059V17.741H128.073V2.26074H131.422L139.484 16.9104V2.26074H141.331V17.741H137.913L129.92 3.23059Z" fill="#F2EDE8"/>
</svg>
