<svg width="179" height="21" viewBox="0 0 179 21" fill="none" xmlns="http://www.w3.org/2000/svg">
<g id="Group">
<g id="Group_2">
<path id="Vector" d="M147.644 9.46518V5.91406H148.014V7.47078H150.03V5.91406H150.4V9.46518H150.03V7.79407H148.014V9.46518H147.644Z" fill="#300A0A"/>
<path id="Vector_2" d="M153.428 9.46518H151.298V5.91406H153.393V6.23485H151.668V7.47078H153.244V7.79158H151.668V9.1419H153.428V9.46269V9.46518Z" fill="#300A0A"/>
<path id="Vector_3" d="M156.334 8.48041H154.679L154.303 9.46518H153.938L155.317 5.91406H155.723L157.097 9.46518H156.707L156.337 8.48041H156.334ZM154.793 8.17952H156.217L155.511 6.30945L154.795 8.17952H154.793Z" fill="#300A0A"/>
<path id="Vector_4" d="M157.665 9.46518V5.91406H158.035V9.13195H159.69V9.46269H157.665V9.46518Z" fill="#300A0A"/>
<path id="Vector_5" d="M160.7 9.46564V6.24774H159.509V5.91699H162.256V6.24774H161.065V9.46564H160.7Z" fill="#300A0A"/>
<path id="Vector_6" d="M162.809 9.46518V5.91406H163.179V7.47078H165.195V5.91406H165.565V9.46518H165.195V7.79407H163.179V9.46518H162.809Z" fill="#300A0A"/>
<path id="Vector_7" d="M166.264 7.68505C166.264 6.6406 167.01 5.83984 167.999 5.83984C168.844 5.83984 169.54 6.40932 169.679 7.25482H169.289C169.175 6.62069 168.653 6.17308 167.999 6.17308C167.214 6.17308 166.644 6.81467 166.644 7.68505C166.644 8.55542 167.214 9.20696 167.999 9.20696C168.655 9.20696 169.18 8.75188 169.289 8.12024H169.679C169.54 8.96574 168.844 9.54018 167.999 9.54018C167.01 9.54018 166.264 8.73447 166.264 7.68505Z" fill="#300A0A"/>
<path id="Vector_8" d="M172.322 8.48041H170.667L170.292 9.46518H169.926L171.306 5.91406H171.711L173.085 9.46518H172.695L172.325 8.48041H172.322ZM170.781 8.17952H172.205L171.5 6.30945L170.784 8.17952H170.781Z" fill="#300A0A"/>
<path id="Vector_9" d="M173.653 9.46518V5.91406H174.918C175.669 5.91406 176.138 6.30447 176.138 6.98834C176.138 7.523 175.788 7.92337 175.229 8.01787L176.233 9.46767H175.788L174.833 8.06263H174.023V9.46767H173.653V9.46518ZM174.023 7.7493H174.888C175.432 7.7493 175.768 7.48321 175.768 6.98834C175.768 6.49347 175.432 6.22738 174.888 6.22738H174.023V7.7493Z" fill="#300A0A"/>
<path id="Vector_10" d="M179 9.46518H176.87V5.91406H178.965V6.23485H177.24V7.47078H178.816V7.79158H177.24V9.1419H179V9.46269V9.46518Z" fill="#300A0A"/>
<path id="Vector_11" d="M148.844 15.4035C148.018 15.4035 147.534 14.9435 147.499 14.272H147.874C147.909 14.7769 148.225 15.1026 148.839 15.1026C149.343 15.1026 149.738 14.8465 149.738 14.4212C149.738 14.0557 149.53 13.8866 149.028 13.7821L148.578 13.6926C148.108 13.5981 147.613 13.3818 147.613 12.7626C147.613 12.1931 148.113 11.7529 148.819 11.7529C149.525 11.7529 150.044 12.1881 150.084 12.8645H149.704C149.679 12.3945 149.333 12.0538 148.824 12.0538C148.279 12.0538 147.989 12.3846 147.989 12.7402C147.989 13.1604 148.344 13.2898 148.739 13.3693L149.189 13.4638C149.788 13.5882 150.129 13.8344 150.129 14.369C150.129 14.9335 149.669 15.4035 148.844 15.4035Z" fill="#300A0A"/>
<path id="Vector_12" d="M153.02 15.3539H150.89V11.8027H152.985V12.1235H151.26V13.3594H152.836V13.6803H151.26V15.0306H153.02V15.3514V15.3539Z" fill="#300A0A"/>
<path id="Vector_13" d="M153.662 15.3539V11.8027H154.927C155.678 11.8027 156.148 12.1932 156.148 12.877C156.148 13.4117 155.797 13.812 155.238 13.9065L156.242 15.3563H155.797L154.843 13.9513H154.032V15.3563H153.662V15.3539ZM154.032 13.638H154.897C155.442 13.638 155.777 13.3719 155.777 12.877C155.777 12.3822 155.442 12.1161 154.897 12.1161H154.032V13.638Z" fill="#300A0A"/>
<path id="Vector_14" d="M158.224 15.3539H157.818L156.494 11.8027H156.879L158.025 14.9286L159.18 11.8027H159.551L158.221 15.3539H158.224Z" fill="#300A0A"/>
<path id="Vector_15" d="M160.108 15.3539V11.8027H160.479V15.3539H160.108Z" fill="#300A0A"/>
<path id="Vector_16" d="M161.175 13.5737C161.175 12.5293 161.921 11.7285 162.91 11.7285C163.755 11.7285 164.451 12.298 164.59 13.1435H164.2C164.086 12.5094 163.561 12.0618 162.91 12.0618C162.125 12.0618 161.556 12.7033 161.556 13.5737C161.556 14.4441 162.125 15.0956 162.91 15.0956C163.566 15.0956 164.091 14.6406 164.2 14.0089H164.59C164.451 14.8544 163.755 15.4289 162.91 15.4289C161.921 15.4289 161.175 14.6231 161.175 13.5737Z" fill="#300A0A"/>
<path id="Vector_17" d="M167.41 15.3539H165.28V11.8027H167.375V12.1235H165.65V13.3594H167.226V13.6803H165.65V15.0306H167.41V15.3514V15.3539Z" fill="#300A0A"/>
<path id="Vector_18" d="M169.197 15.4045C168.372 15.4045 167.887 14.9445 167.853 14.273H168.228C168.263 14.7778 168.578 15.1036 169.192 15.1036C169.697 15.1036 170.092 14.8475 170.092 14.4222C170.092 14.0567 169.886 13.8876 169.381 13.7831L168.931 13.6936C168.462 13.5991 167.967 13.3827 167.967 12.7635C167.967 12.1941 168.466 11.7539 169.172 11.7539C169.878 11.7539 170.398 12.1891 170.437 12.8655H170.057C170.032 12.3955 169.687 12.0548 169.177 12.0548C168.633 12.0548 168.342 12.3855 168.342 12.7412C168.342 13.1614 168.698 13.2907 169.093 13.3703L169.543 13.4648C170.142 13.5892 170.482 13.8353 170.482 14.37C170.482 14.9345 170.022 15.4045 169.197 15.4045Z" fill="#300A0A"/>
</g>
<g id="Group_3">
<g id="&#38;lt;Repeti&#195;&#131;&#194;&#167;&#195;&#131;&#194;&#163;o radial&#38;gt;">
<path id="Vector_19" d="M7.83692 19.2953L9.77858 17.3531C9.9004 17.2313 10.0943 17.2313 10.2161 17.3531L12.1577 19.2953C12.2796 19.4171 12.2796 19.6111 12.1577 19.7329L11.4119 20.479C11.315 20.576 11.1633 20.5984 11.0415 20.5287C10.3951 20.1632 9.60206 20.1632 8.95567 20.5287C8.83385 20.5959 8.6822 20.576 8.58524 20.479L7.83941 19.7329C7.71759 19.6111 7.71759 19.4171 7.83941 19.2953H7.83692Z" fill="#300A0A"/>
</g>
<g id="&#38;lt;Repeti&#195;&#131;&#194;&#167;&#195;&#131;&#194;&#163;o radial&#38;gt;_2">
<path id="Vector_20" d="M2.30288 15.2125H5.04688C5.21838 15.2125 5.35508 15.3517 5.35508 15.5208V18.2662C5.35508 18.4378 5.21589 18.5746 5.04688 18.5746H3.99303C3.85384 18.5746 3.73206 18.4826 3.69478 18.3483C3.49594 17.6321 2.93666 17.0701 2.21835 16.8711C2.08413 16.8338 1.99219 16.712 1.99219 16.5727V15.5183C1.99219 15.3467 2.13137 15.21 2.30039 15.21L2.30288 15.2125Z" fill="#300A0A"/>
</g>
<g id="&#38;lt;Repeti&#195;&#131;&#194;&#167;&#195;&#131;&#194;&#163;o radial&#38;gt;_3">
<path id="Vector_21" d="M1.27334 8.40824L3.21447 10.3504C3.33626 10.4723 3.33626 10.6662 3.21447 10.7881L1.27334 12.7303C1.15155 12.8521 0.957679 12.8521 0.835889 12.7303L0.0902384 11.9842C-0.00669618 11.8872 -0.0291142 11.7356 0.0404798 11.6137C0.405849 10.9671 0.405849 10.1739 0.0404798 9.52729C-0.0266287 9.40544 -0.00669618 9.25375 0.0902384 9.15676L0.835889 8.41073C0.957679 8.28887 1.15155 8.28887 1.27334 8.41073V8.40824Z" fill="#300A0A"/>
</g>
<g id="&#38;lt;Repeti&#195;&#131;&#194;&#167;&#195;&#131;&#194;&#163;o radial&#38;gt;_4">
<path id="Vector_22" d="M5.35503 2.87335V5.61877C5.35503 5.79036 5.21585 5.92713 5.04683 5.92713H2.30283C2.13133 5.92713 1.99463 5.78787 1.99463 5.61877V4.56436C1.99463 4.4251 2.08657 4.30326 2.22079 4.26596C2.93661 4.06701 3.49838 3.50748 3.69722 2.7888C3.7345 2.65451 3.85628 2.5625 3.99547 2.5625H5.04932C5.22082 2.5625 5.35752 2.70177 5.35752 2.87087L5.35503 2.87335Z" fill="#300A0A"/>
</g>
<g id="&#38;lt;Repeti&#195;&#131;&#194;&#167;&#195;&#131;&#194;&#163;o radial&#38;gt;_5">
<path id="Vector_23" d="M12.1578 1.8433L10.2162 3.78547C10.0944 3.90732 9.90045 3.90732 9.77863 3.78547L7.83697 1.8433C7.71515 1.72145 7.71515 1.52747 7.83697 1.40562L8.5828 0.659586C8.67976 0.562601 8.83141 0.540225 8.95323 0.609855C9.59961 0.975412 10.3927 0.975412 11.039 0.609855C11.1609 0.542712 11.3125 0.562601 11.4095 0.659586L12.1553 1.40562C12.2771 1.52747 12.2771 1.72145 12.1553 1.8433H12.1578Z" fill="#300A0A"/>
</g>
<g id="&#38;lt;Repeti&#195;&#131;&#194;&#167;&#195;&#131;&#194;&#163;o radial&#38;gt;_6">
<path id="Vector_24" d="M17.6911 5.92659H14.9472C14.7757 5.92659 14.6389 5.78733 14.6389 5.61823V2.87281C14.6389 2.70122 14.7782 2.56445 14.9472 2.56445H16.001C16.1402 2.56445 16.262 2.65647 16.2993 2.79075C16.4981 3.50695 17.0573 4.06895 17.7756 4.26789C17.9099 4.3052 18.0018 4.42705 18.0018 4.56631V5.62071C18.0018 5.79229 17.8626 5.92908 17.6936 5.92908L17.6911 5.92659Z" fill="#300A0A"/>
</g>
<g id="&#38;lt;Repeti&#195;&#131;&#194;&#167;&#195;&#131;&#194;&#163;o radial&#38;gt;_7">
<path id="Vector_25" d="M18.7205 12.7298L16.7793 10.7876C16.6575 10.6658 16.6575 10.4718 16.7793 10.35L18.7205 8.4078C18.8423 8.28594 19.0362 8.28594 19.158 8.4078L19.9036 9.15383C20.0006 9.25082 20.0229 9.40251 19.9533 9.52436C19.588 10.1709 19.588 10.9642 19.9533 11.6108C20.0204 11.7326 20.0006 11.8843 19.9036 11.9813L19.158 12.7273C19.0362 12.8492 18.8423 12.8492 18.7205 12.7273V12.7298Z" fill="#300A0A"/>
</g>
<g id="&#38;lt;Repeti&#195;&#131;&#194;&#167;&#195;&#131;&#194;&#163;o radial&#38;gt;_8">
<path id="Vector_26" d="M14.6389 18.2657V15.5203C14.6389 15.3487 14.7781 15.2119 14.9472 15.2119H17.6911C17.8626 15.2119 17.9993 15.3512 17.9993 15.5203V16.5747C17.9993 16.7139 17.9074 16.8358 17.7731 16.8731C17.0573 17.072 16.4956 17.6316 16.2968 18.3502C16.2595 18.4845 16.1377 18.5765 15.9985 18.5765H14.9447C14.7732 18.5765 14.6365 18.4373 14.6365 18.2682L14.6389 18.2657Z" fill="#300A0A"/>
</g>
</g>
<g id="Group_4">
<path id="Vector_27" d="M25.906 2.82812H33.2276C36.646 2.82812 38.518 5.55364 38.518 8.05037C38.518 10.5471 36.7628 13.2478 33.3892 13.2478H27.7308V18.3084H25.906V2.82812ZM32.7205 11.5617C35.4228 11.5617 36.6708 9.82842 36.6708 8.05037C36.6708 6.27232 35.2861 4.51417 33.1828 4.51417H27.7308V11.5617H32.7205Z" fill="#300A0A"/>
<path id="Vector_28" d="M40.3775 2.82812H48.0695C51.1871 2.82812 52.8975 5.16322 52.8975 7.3118C52.8975 9.57726 51.2119 11.8626 47.9775 11.8626H46.5679L53.4047 18.3084H50.7943L44.0943 11.8626C43.0774 10.8928 42.707 10.6143 42.1998 10.5919V18.3084H40.375V2.82812H40.3775ZM47.4231 10.2686C50.0335 10.2686 51.12 8.78895 51.12 7.3118C51.12 5.83465 49.8943 4.51665 48.0247 4.51665H42.2048V10.2711H47.4256L47.4231 10.2686Z" fill="#300A0A"/>
<path id="Vector_29" d="M55.3738 2.82768H67.1555V4.51373H57.1986V9.52708H66.1386V11.1907H57.1986V16.6194H67.1555V18.3054H55.3738V2.8252V2.82768Z" fill="#300A0A"/>
<path id="Vector_30" d="M68.3091 10.5223C68.3091 5.85458 71.9139 2.50488 76.6723 2.50488C79.0291 2.50488 80.9907 3.36033 82.378 4.90711V7.56299H82.1467C81.5699 5.76008 79.4667 4.23569 76.6723 4.23569C72.7443 4.23569 70.1587 6.98607 70.1587 10.4974C70.1587 14.0088 72.7468 16.8984 76.9036 16.8984C80.1131 16.8984 82.4003 14.8418 82.4003 12.3923H82.6788V13.964C82.6788 17.0824 79.8844 18.6317 76.6972 18.6317C71.9164 18.6317 68.3116 15.2347 68.3116 10.5223H68.3091Z" fill="#300A0A"/>
<path id="Vector_31" d="M85.3066 2.82812H87.1544V18.3084H85.3066V2.82812Z" fill="#300A0A"/>
<path id="Vector_32" d="M90.003 13.5039V11.2857H90.2814C90.2814 14.5434 93.2622 16.9456 96.4494 16.9456C99.1294 16.9456 100.723 15.6749 100.723 14.1505C100.723 12.7877 99.9375 12.1636 98.0431 11.609L93.7471 10.383C91.8303 9.82846 90.1198 8.7666 90.1198 6.71003C90.1198 4.37494 92.3822 2.50488 96.3326 2.50488C99.751 2.50488 102.222 4.3078 102.222 6.24749V8.92825H101.944C101.944 6.66528 99.7038 4.19091 95.9149 4.19091C93.2598 4.19091 91.9421 5.39203 91.9421 6.66278C91.9421 7.70225 92.9366 8.30407 94.4133 8.74174L98.7565 9.9901C100.629 10.5223 102.59 11.5145 102.59 13.9864C102.59 16.5975 99.9797 18.6317 96.3525 18.6317C92.7253 18.6317 90.0005 17.2689 90.0005 13.5014L90.003 13.5039Z" fill="#300A0A"/>
<path id="Vector_33" d="M105.218 2.82812H107.066V18.3084H105.218V2.82812Z" fill="#300A0A"/>
<path id="Vector_34" d="M109.514 10.5223C109.514 5.97146 112.98 2.50488 117.576 2.50488C122.173 2.50488 125.639 5.97146 125.639 10.5223C125.639 15.0731 122.173 18.6317 117.576 18.6317C112.98 18.6317 109.514 15.1203 109.514 10.5223ZM123.789 10.5223C123.789 7.08056 121.318 4.21579 117.576 4.21579C113.835 4.21579 111.364 7.08056 111.364 10.5223C111.364 13.964 113.835 16.9233 117.576 16.9233C121.318 16.9233 123.789 14.0585 123.789 10.5223Z" fill="#300A0A"/>
<path id="Vector_35" d="M129.92 3.79993V18.3103H128.073V2.83008H131.422L139.484 17.4797V2.83008H141.331V18.3103H137.913L129.92 3.79993Z" fill="#300A0A"/>
</g>
</g>
</svg>
