<svg width="222" height="25" viewBox="0 0 222 25" fill="none" xmlns="http://www.w3.org/2000/svg">
<path d="M183.11 11.1205V6.68164H183.57V8.62752H186.07V6.68164H186.53V11.1205H186.07V9.03163H183.57V11.1205H183.11Z" fill="#300A0A"/>
<path d="M190.285 11.1205H187.643V6.68164H190.242V7.08262H188.102V8.62752H190.057V9.02852H188.102V10.7164H190.285V11.1174V11.1205Z" fill="#300A0A"/>
<path d="M193.89 9.88955H191.836L191.37 11.1205H190.917L192.628 6.68164H193.131L194.836 11.1205H194.352L193.893 9.88955H193.89ZM191.978 9.51344H193.745L192.869 7.17587L191.981 9.51344H191.978Z" fill="#300A0A"/>
<path d="M195.539 11.1205V6.68164H195.999V10.704H198.052V11.1174H195.539V11.1205Z" fill="#300A0A"/>
<path d="M199.304 11.1194V7.09702H197.827V6.68359H201.234V7.09702H199.757V11.1194H199.304Z" fill="#300A0A"/>
<path d="M201.918 11.1205V6.68164H202.378V8.62752H204.878V6.68164H205.338V11.1205H204.878V9.03163H202.378V11.1205H201.918Z" fill="#300A0A"/>
<path d="M206.204 8.89438C206.204 7.58883 207.129 6.58789 208.356 6.58789C209.405 6.58789 210.268 7.29973 210.441 8.3566H209.957C209.815 7.56395 209.167 7.00443 208.356 7.00443C207.382 7.00443 206.676 7.80642 206.676 8.89438C206.676 9.98234 207.382 10.7967 208.356 10.7967C209.17 10.7967 209.821 10.2279 209.957 9.43836H210.441C210.268 10.4952 209.405 11.2133 208.356 11.2133C207.129 11.2133 206.204 10.2061 206.204 8.89438Z" fill="#300A0A"/>
<path d="M213.718 9.88955H211.665L211.199 11.1205H210.746L212.457 6.68164H212.96L214.665 11.1205H214.181L213.721 9.88955H213.718ZM211.807 9.51344H213.573L212.698 7.17587L211.81 9.51344H211.807Z" fill="#300A0A"/>
<path d="M215.368 11.1205V6.68164H216.937C217.869 6.68164 218.451 7.16965 218.451 8.02448C218.451 8.69279 218.017 9.19326 217.323 9.31138L218.568 11.1236H218.017L216.832 9.36733H215.827V11.1236H215.368V11.1205ZM215.827 8.97566H216.9C217.576 8.97566 217.992 8.64306 217.992 8.02448C217.992 7.40589 217.576 7.07329 216.9 7.07329H215.827V8.97566Z" fill="#300A0A"/>
<path d="M222 11.1205H219.358V6.68164H221.957V7.08262H219.817V8.62752H221.772V9.02852H219.817V10.7164H222V11.1174V11.1205Z" fill="#300A0A"/>
<path d="M184.599 18.5437C183.576 18.5437 182.975 17.9686 182.931 17.1293H183.397C183.44 17.7603 183.832 18.1675 184.593 18.1675C185.219 18.1675 185.709 17.8474 185.709 17.3158C185.709 16.8589 185.45 16.6475 184.828 16.517L184.27 16.4051C183.687 16.2869 183.073 16.0165 183.073 15.2425C183.073 14.5307 183.693 13.9805 184.569 13.9805C185.444 13.9805 186.089 14.5244 186.138 15.3699H185.666C185.635 14.7824 185.207 14.3566 184.575 14.3566C183.9 14.3566 183.539 14.77 183.539 15.2145C183.539 15.7398 183.98 15.9015 184.47 16.001L185.028 16.1191C185.771 16.2745 186.194 16.5823 186.194 17.2506C186.194 17.9562 185.623 18.5437 184.599 18.5437Z" fill="#300A0A"/>
<path d="M189.779 18.4799H187.137V14.041H189.736V14.442H187.596V15.9869H189.551V16.3879H187.596V18.0758H189.779V18.4768V18.4799Z" fill="#300A0A"/>
<path d="M190.575 18.4799V14.041H192.144C193.075 14.041 193.658 14.529 193.658 15.3839C193.658 16.0522 193.223 16.5526 192.53 16.6708L193.775 18.483H193.223L192.04 16.7267H191.034V18.483H190.575V18.4799ZM191.034 16.3351H192.107C192.783 16.3351 193.199 16.0025 193.199 15.3839C193.199 14.7653 192.783 14.4327 192.107 14.4327H191.034V16.3351Z" fill="#300A0A"/>
<path d="M196.233 18.4818H195.731L194.087 14.043H194.565L195.986 17.9503L197.42 14.043H197.88L196.23 18.4818H196.233Z" fill="#300A0A"/>
<path d="M198.57 18.4799V14.041H199.028V18.4799H198.57Z" fill="#300A0A"/>
<path d="M199.893 16.2557C199.893 14.9502 200.818 13.9492 202.045 13.9492C203.093 13.9492 203.956 14.6611 204.129 15.7179H203.645C203.503 14.9253 202.853 14.3658 202.045 14.3658C201.07 14.3658 200.364 15.1677 200.364 16.2557C200.364 17.3437 201.07 18.1581 202.045 18.1581C202.859 18.1581 203.509 17.5892 203.645 16.7997H204.129C203.956 17.8566 203.093 18.5746 202.045 18.5746C200.818 18.5746 199.893 17.5675 199.893 16.2557Z" fill="#300A0A"/>
<path d="M207.626 18.4799H204.983V14.041H207.583V14.442H205.443V15.9869H207.398V16.3879H205.443V18.0758H207.626V18.4768V18.4799Z" fill="#300A0A"/>
<path d="M209.843 18.5437C208.819 18.5437 208.218 17.9686 208.175 17.1293H208.64C208.683 17.7603 209.075 18.1675 209.837 18.1675C210.462 18.1675 210.953 17.8474 210.953 17.3158C210.953 16.8589 210.697 16.6475 210.071 16.517L209.513 16.4051C208.93 16.2869 208.316 16.0165 208.316 15.2425C208.316 14.5307 208.936 13.9805 209.812 13.9805C210.687 13.9805 211.332 14.5244 211.381 15.3699H210.91C210.879 14.7824 210.45 14.3566 209.818 14.3566C209.143 14.3566 208.782 14.77 208.782 15.2145C208.782 15.7398 209.223 15.9015 209.713 16.001L210.271 16.1191C211.014 16.2745 211.437 16.5823 211.437 17.2506C211.437 17.9562 210.866 18.5437 209.843 18.5437Z" fill="#300A0A"/>
<path d="M9.7196 23.4072L12.1277 20.9795C12.2788 20.8272 12.5193 20.8272 12.6704 20.9795L15.0784 23.4072C15.2295 23.5595 15.2295 23.8019 15.0784 23.9542L14.1534 24.8868C14.0331 25.008 13.8451 25.036 13.694 24.949C12.8923 24.492 11.9088 24.492 11.1071 24.949C10.956 25.0329 10.7679 25.008 10.6477 24.8868L9.72269 23.9542C9.5716 23.8019 9.5716 23.5595 9.72269 23.4072H9.7196Z" fill="#300A0A"/>
<path d="M2.85612 18.3039H6.26012C6.47287 18.3039 6.64245 18.478 6.64245 18.6893V22.1211C6.64245 22.3356 6.46978 22.5065 6.26012 22.5065H4.95279C4.78013 22.5065 4.62906 22.3915 4.58281 22.2237C4.33614 21.3284 3.64234 20.6259 2.75126 20.3772C2.58476 20.3306 2.4707 20.1783 2.4707 20.0042V18.6862C2.4707 18.4718 2.64337 18.3008 2.85303 18.3008L2.85612 18.3039Z" fill="#300A0A"/>
<path d="M1.57961 9.79862L3.98762 12.2263C4.13871 12.3786 4.13871 12.6211 3.98762 12.7734L1.57961 15.2011C1.42852 15.3534 1.18802 15.3534 1.03694 15.2011L0.111943 14.2686C-0.00830676 14.1474 -0.0361169 13.9577 0.0502161 13.8054C0.503464 12.9972 0.503464 12.0056 0.0502161 11.1974C-0.0330336 11.0451 -0.00830676 10.8555 0.111943 10.7343L1.03694 9.80174C1.18802 9.64942 1.42852 9.64942 1.57961 9.80174V9.79862Z" fill="#300A0A"/>
<path d="M6.64229 2.88074V6.31249C6.64229 6.52697 6.46963 6.69793 6.25996 6.69793H2.85596C2.64321 6.69793 2.47363 6.52386 2.47363 6.31249V4.99449C2.47363 4.82042 2.58769 4.66812 2.75419 4.62149C3.64218 4.37281 4.33907 3.6734 4.58574 2.77506C4.63199 2.6072 4.78306 2.49219 4.95572 2.49219H6.26305C6.4758 2.49219 6.64537 2.66627 6.64537 2.87764L6.64229 2.88074Z" fill="#300A0A"/>
<path d="M15.0783 1.59244L12.6703 4.02013C12.5192 4.17244 12.2787 4.17244 12.1276 4.02013L9.71951 1.59244C9.56843 1.44012 9.56843 1.19766 9.71951 1.04535L10.6445 0.112812C10.7648 -0.00841817 10.9528 -0.0363886 11.1039 0.0506481C11.9056 0.507591 12.8891 0.507591 13.6908 0.0506481C13.8419 -0.0332801 14.03 -0.00841817 14.1502 0.112812L15.0752 1.04535C15.2263 1.19766 15.2263 1.44012 15.0752 1.59244H15.0783Z" fill="#300A0A"/>
<path d="M21.9416 6.69678H18.5377C18.3249 6.69678 18.1553 6.52271 18.1553 6.31133V2.87959C18.1553 2.6651 18.328 2.49414 18.5377 2.49414H19.845C20.0177 2.49414 20.1687 2.60915 20.215 2.77701C20.4617 3.67225 21.1554 4.37475 22.0465 4.62342C22.213 4.67005 22.327 4.82237 22.327 4.99644V6.31442C22.327 6.52891 22.1544 6.69989 21.9447 6.69989L21.9416 6.69678Z" fill="#300A0A"/>
<path d="M23.2182 15.2023L20.8101 12.7746C20.659 12.6223 20.659 12.3798 20.8101 12.2275L23.2182 9.79978C23.3693 9.64747 23.6098 9.64747 23.7608 9.79978L24.6858 10.7323C24.8061 10.8535 24.8338 11.0432 24.7475 11.1955C24.2942 12.0037 24.2942 12.9953 24.7475 13.8035C24.8307 13.9558 24.8061 14.1454 24.6858 14.2666L23.7608 15.1992C23.6098 15.3515 23.3693 15.3515 23.2182 15.1992V15.2023Z" fill="#300A0A"/>
<path d="M18.1554 22.1199V18.6882C18.1554 18.4737 18.3281 18.3027 18.5378 18.3027H21.9417C22.1544 18.3027 22.324 18.4768 22.324 18.6882V20.0062C22.324 20.1803 22.21 20.3326 22.0435 20.3792C21.1555 20.6279 20.4586 21.3273 20.212 22.2256C20.1657 22.3935 20.0147 22.5085 19.842 22.5085H18.5347C18.3219 22.5085 18.1523 22.3344 18.1523 22.123L18.1554 22.1199Z" fill="#300A0A"/>
<path d="M32.1289 2.82227H41.2093C45.4488 2.82227 47.7706 6.22913 47.7706 9.35002C47.7706 12.4709 45.5938 15.8467 41.4097 15.8467H34.3921V22.1724H32.1289V2.82227ZM40.5803 13.7392C43.9319 13.7392 45.4797 11.5726 45.4797 9.35002C45.4797 7.12747 43.7623 4.92981 41.1538 4.92981H34.3921V13.7392H40.5803Z" fill="#300A0A"/>
<path d="M50.0768 2.82227H59.6167C63.4832 2.82227 65.6045 5.74111 65.6045 8.42682C65.6045 11.2586 63.514 14.1153 59.5026 14.1153H57.7543L66.2335 22.1724H62.996L54.6864 14.1153C53.4254 12.903 52.9659 12.5548 52.3369 12.5269V22.1724H50.0737V2.82227H50.0768ZM58.815 12.1228C62.0525 12.1228 63.3999 10.2732 63.3999 8.42682C63.3999 6.5804 61.8798 4.9329 59.5611 4.9329H52.3431V12.1259H58.8181L58.815 12.1228Z" fill="#300A0A"/>
<path d="M68.6753 2.82342H83.2872V4.93096H70.9385V11.1976H82.0261V13.2772H70.9385V20.0629H83.2872V22.1704H68.6753V2.82031V2.82342Z" fill="#300A0A"/>
<path d="M84.718 12.4396C84.718 6.60505 89.1888 2.41797 95.0903 2.41797C98.0133 2.41797 100.446 3.48727 102.167 5.42073V8.74055H101.88C101.164 6.48692 98.5559 4.58146 95.0903 4.58146C90.2186 4.58146 87.012 8.01941 87.012 12.4085C87.012 16.7977 90.2218 20.4097 95.3771 20.4097C99.3576 20.4097 102.194 17.839 102.194 14.7772H102.54V16.7417C102.54 20.6397 99.074 22.5763 95.1211 22.5763C89.1919 22.5763 84.7211 18.3301 84.7211 12.4396H84.718Z" fill="#300A0A"/>
<path d="M105.799 2.82227H108.09V22.1724H105.799V2.82227Z" fill="#300A0A"/>
<path d="M111.623 16.1667V13.3939H111.968C111.968 17.466 115.665 20.4688 119.618 20.4688C122.942 20.4688 124.918 18.8803 124.918 16.9749C124.918 15.2714 123.944 14.4912 121.595 13.798L116.267 12.2655C113.889 11.5724 111.768 10.245 111.768 7.67436C111.768 4.75552 114.574 2.41797 119.473 2.41797C123.713 2.41797 126.778 4.67159 126.778 7.09619V10.4471H126.432C126.432 7.61842 123.654 4.52549 118.955 4.52549C115.662 4.52549 114.028 6.02687 114.028 7.61529C114.028 8.91463 115.262 9.66689 117.093 10.214L122.48 11.7744C124.801 12.4396 127.234 13.6799 127.234 16.7697C127.234 20.0336 123.997 22.5763 119.498 22.5763C114.999 22.5763 111.62 20.8728 111.62 16.1635L111.623 16.1667Z" fill="#300A0A"/>
<path d="M130.493 2.82227H132.784V22.1724H130.493V2.82227Z" fill="#300A0A"/>
<path d="M135.821 12.4396C135.821 6.75115 140.119 2.41797 145.82 2.41797C151.521 2.41797 155.819 6.75115 155.819 12.4396C155.819 18.1281 151.521 22.5763 145.82 22.5763C140.119 22.5763 135.821 18.1872 135.821 12.4396ZM153.525 12.4396C153.525 8.13752 150.461 4.55659 145.82 4.55659C141.18 4.55659 138.115 8.13752 138.115 12.4396C138.115 16.7417 141.18 20.4408 145.82 20.4408C150.461 20.4408 153.525 16.8598 153.525 12.4396Z" fill="#300A0A"/>
<path d="M161.129 4.03652V22.1743H158.838V2.82422H162.991L172.99 21.1361V2.82422H175.281V22.1743H171.042L161.129 4.03652Z" fill="#300A0A"/>
</svg>
