<svg width="42" height="43" viewBox="0 0 42 43" fill="none" xmlns="http://www.w3.org/2000/svg">
<g id="Group">
<g id="&#38;lt;Repeti&#195;&#131;&#194;&#167;&#195;&#131;&#194;&#163;o radial&#38;gt;">
<path id="Vector" d="M16.679 39.915L20.719 35.875C20.969 35.625 21.3787 35.625 21.6287 35.875L25.6687 39.915C25.9187 40.165 25.9187 40.5752 25.6687 40.8252L24.1189 42.375C23.9189 42.575 23.5989 42.6251 23.3489 42.4851C21.9989 41.7251 20.3488 41.7251 18.9988 42.4851C18.7488 42.6251 18.4288 42.585 18.2288 42.375L16.679 40.8252C16.429 40.5752 16.429 40.165 16.679 39.915Z" fill="#F5733D"/>
</g>
<g id="&#38;lt;Repeti&#195;&#131;&#194;&#167;&#195;&#131;&#194;&#163;o radial&#38;gt;_2">
<path id="Vector_2" d="M5.15894 31.4043H10.8787C11.2387 31.4043 11.5188 31.6944 11.5188 32.0444V37.7644C11.5188 38.1244 11.2287 38.4043 10.8787 38.4043H8.67896C8.38896 38.4043 8.13884 38.2143 8.05884 37.9343C7.64884 36.4443 6.47901 35.2745 4.98901 34.8645C4.70901 34.7845 4.5188 34.5344 4.5188 34.2444V32.0444C4.5188 31.6844 4.80894 31.4043 5.15894 31.4043Z" fill="#F5733D"/>
</g>
<g id="&#38;lt;Repeti&#195;&#131;&#194;&#167;&#195;&#131;&#194;&#163;o radial&#38;gt;_3">
<path id="Vector_3" d="M3.01859 17.2441L7.05863 21.2842C7.30863 21.5342 7.30863 21.9441 7.05863 22.1941L3.01859 26.2341C2.76859 26.4841 2.35843 26.4841 2.10843 26.2341L0.55863 24.6841C0.35863 24.4841 0.308766 24.1641 0.448766 23.9141C1.20877 22.5641 1.20877 20.9142 0.448766 19.5642C0.308766 19.3142 0.34863 18.9942 0.55863 18.7942L2.10843 17.2441C2.35843 16.9941 2.76859 16.9941 3.01859 17.2441Z" fill="#F5733D"/>
</g>
<g id="&#38;lt;Repeti&#195;&#131;&#194;&#167;&#195;&#131;&#194;&#163;o radial&#38;gt;_4">
<path id="Vector_4" d="M11.5188 5.71411V11.4341C11.5188 11.7941 11.2287 12.0742 10.8787 12.0742H5.15894C4.79894 12.0742 4.5188 11.7841 4.5188 11.4341V9.23413C4.5188 8.94413 4.70901 8.69426 4.98901 8.61426C6.47901 8.20426 7.64884 7.03419 8.05884 5.54419C8.13884 5.26419 8.38896 5.07422 8.67896 5.07422H10.8787C11.2387 5.07422 11.5188 5.36411 11.5188 5.71411Z" fill="#F5733D"/>
</g>
<g id="&#38;lt;Repeti&#195;&#131;&#194;&#167;&#195;&#131;&#194;&#163;o radial&#38;gt;_5">
<path id="Vector_5" d="M25.679 3.57417L21.6389 7.61421C21.3889 7.86421 20.9788 7.86421 20.7288 7.61421L16.6887 3.57417C16.4387 3.32417 16.4387 2.91401 16.6887 2.66401L18.239 1.11421C18.439 0.91421 18.7585 0.864103 19.0085 1.0041C20.3585 1.7641 22.0086 1.7641 23.3586 1.0041C23.6086 0.864103 23.9287 0.90421 24.1287 1.11421L25.679 2.66401C25.929 2.91401 25.929 3.32417 25.679 3.57417Z" fill="#F5733D"/>
</g>
<g id="&#38;lt;Repeti&#195;&#131;&#194;&#167;&#195;&#131;&#194;&#163;o radial&#38;gt;_6">
<path id="Vector_6" d="M37.2087 12.0742H31.489C31.129 12.0742 30.8489 11.7841 30.8489 11.4341V5.71411C30.8489 5.35411 31.139 5.07422 31.489 5.07422H33.6887C33.9787 5.07422 34.2288 5.26419 34.3088 5.54419C34.7188 7.03419 35.8887 8.20426 37.3787 8.61426C37.6587 8.69426 37.8489 8.94413 37.8489 9.23413V11.4341C37.8489 11.7941 37.5587 12.0742 37.2087 12.0742Z" fill="#F5733D"/>
</g>
<g id="&#38;lt;Repeti&#195;&#131;&#194;&#167;&#195;&#131;&#194;&#163;o radial&#38;gt;_7">
<path id="Vector_7" d="M39.3489 26.2439L35.3088 22.2039C35.0588 21.9539 35.0588 21.5439 35.3088 21.2939L39.3489 17.2539C39.5989 17.0039 40.0085 17.0039 40.2585 17.2539L41.8088 18.804C42.0088 19.004 42.0587 19.324 41.9187 19.574C41.1587 20.924 41.1587 22.5738 41.9187 23.9238C42.0587 24.1738 42.0188 24.4938 41.8088 24.6938L40.2585 26.2439C40.0085 26.4939 39.5989 26.4939 39.3489 26.2439Z" fill="#F5733D"/>
</g>
<g id="&#38;lt;Repeti&#195;&#131;&#194;&#167;&#195;&#131;&#194;&#163;o radial&#38;gt;_8">
<path id="Vector_8" d="M30.8489 37.7644V32.0444C30.8489 31.6844 31.139 31.4043 31.489 31.4043H37.2087C37.5687 31.4043 37.8489 31.6944 37.8489 32.0444V34.2444C37.8489 34.5344 37.6587 34.7845 37.3787 34.8645C35.8887 35.2745 34.7188 36.4443 34.3088 37.9343C34.2288 38.2143 33.9787 38.4043 33.6887 38.4043H31.489C31.129 38.4043 30.8489 38.1144 30.8489 37.7644Z" fill="#F5733D"/>
</g>
</g>
</svg>
