<svg width="25" height="26" viewBox="0 0 25 26" fill="none" xmlns="http://www.w3.org/2000/svg">
<g id="Group">
<g id="&#38;lt;Repeti&#195;&#131;&#194;&#167;&#195;&#131;&#194;&#163;o radial&#38;gt;">
<path id="Vector" d="M9.70133 23.7989L12.1049 21.3953C12.2557 21.2445 12.4957 21.2445 12.6465 21.3953L15.05 23.7989C15.2008 23.9496 15.2008 24.1897 15.05 24.3405L14.1267 25.2637C14.0067 25.3837 13.819 25.4114 13.6682 25.3253C12.868 24.8729 11.8863 24.8729 11.0862 25.3253C10.9354 25.4084 10.7477 25.3837 10.6277 25.2637L9.70441 24.3405C9.55361 24.1897 9.55361 23.9496 9.70441 23.7989H9.70133Z" fill="#F5733D"/>
</g>
<g id="&#38;lt;Repeti&#195;&#131;&#194;&#167;&#195;&#131;&#194;&#163;o radial&#38;gt;_2">
<path id="Vector_2" d="M2.85051 18.7453H6.24808C6.46042 18.7453 6.62968 18.9176 6.62968 19.1269V22.5244C6.62968 22.7368 6.45735 22.9061 6.24808 22.9061H4.94322C4.77088 22.9061 4.6201 22.7922 4.57394 22.626C4.32774 21.7397 3.63524 21.0442 2.74585 20.798C2.57966 20.7518 2.46582 20.601 2.46582 20.4287V19.1238C2.46582 18.9115 2.63816 18.7422 2.84743 18.7422L2.85051 18.7453Z" fill="#F5733D"/>
</g>
<g id="&#38;lt;Repeti&#195;&#131;&#194;&#167;&#195;&#131;&#194;&#163;o radial&#38;gt;_3">
<path id="Vector_3" d="M1.57662 10.3249L3.98009 12.7284C4.13089 12.8792 4.13089 13.1192 3.98009 13.27L1.57662 15.6736C1.42583 15.8244 1.18578 15.8244 1.03498 15.6736L0.111731 14.7503C-0.00829107 14.6303 -0.0360487 14.4426 0.0501213 14.2918C0.502513 13.4916 0.502513 12.5099 0.0501213 11.7097C-0.0329712 11.5589 -0.00829107 11.3712 0.111731 11.2512L1.03498 10.3279C1.18578 10.1771 1.42583 10.1771 1.57662 10.3279V10.3249Z" fill="#F5733D"/>
</g>
<g id="&#38;lt;Repeti&#195;&#131;&#194;&#167;&#195;&#131;&#194;&#163;o radial&#38;gt;_4">
<path id="Vector_4" d="M6.63002 3.47453V6.8721C6.63002 7.08445 6.45768 7.25371 6.24841 7.25371H2.85085C2.6385 7.25371 2.46924 7.08137 2.46924 6.8721V5.56723C2.46924 5.39489 2.58308 5.2441 2.74926 5.19794C3.63558 4.95174 4.33115 4.25929 4.57735 3.3699C4.62352 3.20371 4.7743 3.08984 4.94664 3.08984H6.2515C6.46384 3.08984 6.6331 3.26219 6.6331 3.47146L6.63002 3.47453Z" fill="#F5733D"/>
</g>
<g id="&#38;lt;Repeti&#195;&#131;&#194;&#167;&#195;&#131;&#194;&#163;o radial&#38;gt;_5">
<path id="Vector_5" d="M15.0496 2.2006L12.6462 4.60412C12.4954 4.75492 12.2553 4.75492 12.1045 4.60412L9.70099 2.2006C9.55019 2.04981 9.55019 1.80976 9.70099 1.65896L10.6242 0.735712C10.7443 0.615689 10.932 0.587997 11.0828 0.674167C11.8829 1.12656 12.8646 1.12656 13.6648 0.674167C13.8156 0.591075 14.0033 0.615689 14.1233 0.735712L15.0466 1.65896C15.1974 1.80976 15.1974 2.04981 15.0466 2.2006H15.0496Z" fill="#F5733D"/>
</g>
<g id="&#38;lt;Repeti&#195;&#131;&#194;&#167;&#195;&#131;&#194;&#163;o radial&#38;gt;_6">
<path id="Vector_6" d="M21.9003 7.25356H18.5028C18.2904 7.25356 18.1211 7.08122 18.1211 6.87195V3.47438C18.1211 3.26203 18.2935 3.09277 18.5028 3.09277H19.8076C19.98 3.09277 20.1308 3.20664 20.1769 3.37283C20.4231 4.25915 21.1155 4.95465 22.0049 5.20085C22.1711 5.24701 22.285 5.39782 22.285 5.57016V6.87501C22.285 7.08736 22.1126 7.25664 21.9034 7.25664L21.9003 7.25356Z" fill="#F5733D"/>
</g>
<g id="&#38;lt;Repeti&#195;&#131;&#194;&#167;&#195;&#131;&#194;&#163;o radial&#38;gt;_7">
<path id="Vector_7" d="M23.1744 15.6737L20.7708 13.2702C20.62 13.1194 20.62 12.8793 20.7708 12.7285L23.1744 10.325C23.3252 10.1742 23.5652 10.1742 23.716 10.325L24.6392 11.2483C24.7593 11.3683 24.787 11.556 24.7008 11.7068C24.2484 12.507 24.2484 13.4887 24.7008 14.2888C24.7839 14.4396 24.7593 14.6274 24.6392 14.7474L23.716 15.6706C23.5652 15.8214 23.3252 15.8214 23.1744 15.6706V15.6737Z" fill="#F5733D"/>
</g>
<g id="&#38;lt;Repeti&#195;&#131;&#194;&#167;&#195;&#131;&#194;&#163;o radial&#38;gt;_8">
<path id="Vector_8" d="M18.1212 22.5243V19.1267C18.1212 18.9144 18.2936 18.7451 18.5029 18.7451H21.9003C22.1127 18.7451 22.282 18.9175 22.282 19.1267V20.4316C22.282 20.6039 22.1681 20.7547 22.0019 20.8009C21.1156 21.0471 20.4201 21.7395 20.1739 22.6289C20.1277 22.7951 19.977 22.909 19.8046 22.909H18.4998C18.2874 22.909 18.1182 22.7366 18.1182 22.5274L18.1212 22.5243Z" fill="#F5733D"/>
</g>
</g>
</svg>
