<svg width="351" height="181" viewBox="0 0 351 181" fill="none" xmlns="http://www.w3.org/2000/svg">
<path d="M1.01846 2.91602H2.52153C2.52153 2.91602 2.69331 3.00131 2.69331 3.0866V4.57913C2.69331 4.57913 2.60741 4.7497 2.52153 4.7497H1.96325C1.96325 4.7497 1.83442 4.70705 1.79147 4.62176C1.66264 4.23797 1.36201 3.93947 0.975509 3.81153C0.975509 3.81153 0.84668 3.72624 0.84668 3.64095V3.0866C0.84668 3.0866 0.932573 2.91602 1.01846 2.91602Z" fill="#300A0A"/>
<path d="M29.6204 2.44693H31.9824C31.9824 2.44693 32.2401 2.57487 32.2401 2.7028V5.04821C32.2401 5.04821 32.1112 5.30408 31.9824 5.30408H31.0806C31.0806 5.30408 30.8659 5.21878 30.8229 5.09085C30.6511 4.49384 30.1787 3.98211 29.5346 3.81154C29.5346 3.81154 29.3198 3.6836 29.3198 3.55567V2.66015C29.3198 2.66015 29.4487 2.4043 29.5775 2.4043L29.6204 2.44693Z" fill="#300A0A"/>
<path d="M58.178 2.02148H61.3989C61.3989 2.02148 61.7425 2.19205 61.7425 2.36263V5.56092C61.7425 5.56092 61.5707 5.90208 61.3989 5.90208H60.1535C60.1535 5.90208 59.8529 5.77414 59.81 5.64621C59.5952 4.79333 58.9081 4.15367 58.0922 3.94045C58.0922 3.94045 57.8345 3.76988 57.8345 3.5993V2.36263C57.8345 2.36263 58.0063 2.02148 58.178 2.02148Z" fill="#300A0A"/>
<path d="M86.78 1.59375H90.8598C91.1174 1.59375 91.3322 1.80697 91.3322 2.06284V6.11401C91.3322 6.36987 91.1174 6.5831 90.8598 6.5831H89.3138C89.3138 6.5831 88.9273 6.45516 88.8843 6.24194C88.5837 5.17584 87.7677 4.36561 86.6941 4.0671C86.6941 4.0671 86.3506 3.85388 86.3506 3.64066V2.10549C86.3506 1.84963 86.5653 1.6364 86.8229 1.6364L86.78 1.59375Z" fill="#300A0A"/>
<path d="M115.381 1.125H120.319C120.62 1.125 120.877 1.38087 120.877 1.67938V6.58343C120.877 6.88194 120.62 7.13779 120.319 7.13779H118.43C118.172 7.13779 117.957 6.96721 117.914 6.75399C117.571 5.47468 116.54 4.49387 115.252 4.11008C114.994 4.02479 114.865 3.81157 114.865 3.59835V1.72203C114.865 1.42352 115.123 1.16765 115.423 1.16765L115.381 1.125Z" fill="#300A0A"/>
<path d="M143.938 0.699219H149.736C150.079 0.699219 150.38 0.997733 150.38 1.33888V7.0958C150.38 7.43696 150.079 7.73547 149.736 7.73547H147.503C147.202 7.73547 146.944 7.52225 146.858 7.26638C146.429 5.77385 145.269 4.57981 143.766 4.19602C143.466 4.11073 143.294 3.85486 143.294 3.55635V1.33888C143.294 0.997733 143.595 0.699219 143.938 0.699219Z" fill="#300A0A"/>
<path d="M1.01846 31.7012H2.52153C2.52153 31.7012 2.69331 31.7865 2.69331 31.8718V33.3643C2.69331 33.3643 2.60741 33.5349 2.52153 33.5349H1.96325C1.96325 33.5349 1.83442 33.4922 1.79147 33.4069C1.66264 33.0231 1.36201 32.7247 0.975509 32.5967C0.975509 32.5967 0.84668 32.5114 0.84668 32.4261V31.8718C0.84668 31.8718 0.932573 31.7012 1.01846 31.7012Z" fill="#300A0A"/>
<path d="M29.4915 31.1055H32.0682C32.0682 31.1055 32.3688 31.2334 32.3688 31.404V33.9626C32.3688 33.9626 32.24 34.2611 32.0682 34.2611H31.0805C31.0805 34.2611 30.8229 34.1758 30.8229 34.0479C30.6511 33.3656 30.1357 32.8539 29.4486 32.6833C29.4486 32.6833 29.2339 32.5554 29.2339 32.4275V31.4466C29.2339 31.4466 29.3627 31.1481 29.5345 31.1481L29.4915 31.1055Z" fill="#300A0A"/>
<path d="M58.0061 30.5508H61.6135C61.8282 30.5508 62 30.7213 62 30.9346V34.5167C62 34.7299 61.8282 34.9004 61.6135 34.9004H60.2393C60.2393 34.9004 59.8957 34.7725 59.8527 34.6019C59.5951 33.6638 58.865 32.9388 57.9202 32.683C57.9202 32.683 57.6196 32.4698 57.6196 32.2992V30.9346C57.6196 30.7213 57.7914 30.5508 58.0061 30.5508Z" fill="#300A0A"/>
<path d="M86.4787 29.9531H91.1597C91.4603 29.9531 91.675 30.1664 91.675 30.4649V35.113C91.675 35.4115 91.4603 35.6248 91.1597 35.6248H89.356C89.0984 35.6248 88.9266 35.4542 88.8407 35.241C88.4971 34.0469 87.5524 33.0661 86.3499 32.7676C86.1352 32.725 85.9634 32.5118 85.9634 32.2559V30.4649C85.9634 30.1664 86.1781 29.9531 86.4787 29.9531Z" fill="#300A0A"/>
<path d="M114.951 29.3555H120.663C121.007 29.3555 121.307 29.654 121.307 29.9951V35.6667C121.307 36.0079 121.007 36.3064 120.663 36.3064H118.473C118.172 36.3064 117.915 36.1358 117.872 35.8373C117.442 34.3448 116.283 33.1934 114.78 32.767C114.522 32.6817 114.307 32.4258 114.307 32.1699V29.9951C114.307 29.654 114.608 29.3555 114.951 29.3555Z" fill="#300A0A"/>
<path d="M143.423 28.7578H150.208C150.638 28.7578 150.981 29.099 150.981 29.5254V36.2631C150.981 36.6896 150.638 37.0307 150.208 37.0307H147.589C147.245 37.0307 146.944 36.8175 146.858 36.4763C146.386 34.7279 144.969 33.3634 143.208 32.8516C142.865 32.7663 142.65 32.4678 142.65 32.1267V29.5254C142.65 29.099 142.993 28.7578 143.423 28.7578Z" fill="#300A0A"/>
<path d="M1.01846 60.5273H2.52153C2.52153 60.5273 2.69331 60.6126 2.69331 60.6979V62.1905C2.69331 62.1905 2.60741 62.361 2.52153 62.361H1.96325C1.96325 62.361 1.83442 62.3184 1.79147 62.2331C1.66264 61.8493 1.36201 61.5508 0.975509 61.4229C0.975509 61.4229 0.84668 61.3376 0.84668 61.2523V60.6979C0.84668 60.6979 0.932573 60.5273 1.01846 60.5273Z" fill="#300A0A"/>
<path d="M172.54 0.230137H179.154C179.583 0.230137 179.884 0.571296 179.884 0.955091V7.52224C179.884 7.94868 179.54 8.24719 179.154 8.24719H176.62C176.276 8.24719 175.976 8.03397 175.89 7.69282C175.417 5.98706 174.043 4.62247 172.325 4.15338C171.982 4.0681 171.767 3.76958 171.767 3.42843V0.912439C171.767 0.485999 172.111 0.1875 172.497 0.1875L172.54 0.230137Z" fill="#300A0A"/>
<path d="M201.958 0.699219H207.755C208.099 0.699219 208.399 0.997733 208.399 1.33888V7.0958C208.399 7.43696 208.099 7.73547 207.755 7.73547H205.522C205.222 7.73547 204.964 7.52225 204.878 7.26638C204.448 5.77385 203.289 4.57981 201.786 4.19602C201.485 4.11073 201.313 3.85486 201.313 3.55635V1.33888C201.313 0.997733 201.614 0.699219 201.958 0.699219Z" fill="#300A0A"/>
<path d="M231.418 1.125H236.357C236.657 1.125 236.915 1.38087 236.915 1.67938V6.58343C236.915 6.88194 236.657 7.13779 236.357 7.13779H234.467C234.21 7.13779 233.995 6.96721 233.952 6.75399C233.608 5.47468 232.578 4.49387 231.289 4.11008C231.032 4.02479 230.903 3.81157 230.903 3.59835V1.72203C230.903 1.42352 231.16 1.16765 231.461 1.16765L231.418 1.125Z" fill="#300A0A"/>
<path d="M260.836 1.59375H264.915C265.173 1.59375 265.388 1.80697 265.388 2.06284V6.11401C265.388 6.36987 265.173 6.5831 264.915 6.5831H263.369C263.369 6.5831 262.983 6.45516 262.94 6.24194C262.639 5.17584 261.823 4.36561 260.75 4.0671C260.75 4.0671 260.406 3.85388 260.406 3.64066V2.10549C260.406 1.84963 260.621 1.6364 260.879 1.6364L260.836 1.59375Z" fill="#300A0A"/>
<path d="M290.294 2.02148H293.515C293.515 2.02148 293.859 2.19205 293.859 2.36263V5.56092C293.859 5.56092 293.687 5.90208 293.515 5.90208H292.27C292.27 5.90208 291.969 5.77414 291.926 5.64621C291.711 4.79333 291.024 4.15367 290.208 3.94045C290.208 3.94045 289.951 3.76988 289.951 3.5993V2.36263C289.951 2.36263 290.122 2.02148 290.294 2.02148Z" fill="#300A0A"/>
<path d="M319.754 2.44693H322.116C322.116 2.44693 322.374 2.57487 322.374 2.7028V5.04821C322.374 5.04821 322.245 5.30408 322.116 5.30408H321.214C321.214 5.30408 321 5.21878 320.957 5.09085C320.785 4.49384 320.313 3.98211 319.668 3.81154C319.668 3.81154 319.454 3.6836 319.454 3.55567V2.66015C319.454 2.66015 319.582 2.4043 319.711 2.4043L319.754 2.44693Z" fill="#300A0A"/>
<path d="M349.172 2.91602H350.675C350.675 2.91602 350.847 3.00131 350.847 3.0866V4.57913C350.847 4.57913 350.761 4.7497 350.675 4.7497H350.117C350.117 4.7497 349.988 4.70705 349.945 4.62176C349.816 4.23797 349.515 3.93947 349.129 3.81153C349.129 3.81153 349 3.72624 349 3.64095V3.0866C349 3.0866 349.086 2.91602 349.172 2.91602Z" fill="#300A0A"/>
<path d="M171.939 28.1621H179.798C180.27 28.1621 180.7 28.5459 180.7 29.0576V36.8615C180.7 37.3306 180.313 37.757 179.798 37.757H176.792C176.405 37.757 176.062 37.5011 175.933 37.1173C175.375 35.0704 173.786 33.4926 171.724 32.9382C171.338 32.8529 171.08 32.4691 171.08 32.0853V29.1003C171.08 28.6312 171.467 28.2047 171.982 28.2047L171.939 28.1621Z" fill="#300A0A"/>
<path d="M201.485 28.7578H208.271C208.7 28.7578 209.044 29.099 209.044 29.5254V36.2631C209.044 36.6896 208.7 37.0307 208.271 37.0307H205.651C205.308 37.0307 205.007 36.8175 204.921 36.4763C204.449 34.7279 203.031 33.3634 201.271 32.8516C200.927 32.7663 200.712 32.4678 200.712 32.1267V29.5254C200.712 29.099 201.056 28.7578 201.485 28.7578Z" fill="#300A0A"/>
<path d="M230.987 29.3555H236.699C237.043 29.3555 237.343 29.654 237.343 29.9951V35.6667C237.343 36.0079 237.043 36.3064 236.699 36.3064H234.509C234.208 36.3064 233.951 36.1358 233.908 35.8373C233.478 34.3448 232.319 33.1934 230.816 32.767C230.558 32.6817 230.343 32.4258 230.343 32.1699V29.9951C230.343 29.654 230.644 29.3555 230.987 29.3555Z" fill="#300A0A"/>
<path d="M260.534 29.9531H265.215C265.515 29.9531 265.73 30.1664 265.73 30.4649V35.113C265.73 35.4115 265.515 35.6248 265.215 35.6248H263.411C263.153 35.6248 262.982 35.4542 262.896 35.241C262.552 34.0469 261.607 33.0661 260.405 32.7676C260.19 32.725 260.019 32.5118 260.019 32.2559V30.4649C260.019 30.1664 260.233 29.9531 260.534 29.9531Z" fill="#300A0A"/>
<path d="M290.08 30.5508H293.688C293.902 30.5508 294.074 30.7213 294.074 30.9346V34.5167C294.074 34.7299 293.902 34.9004 293.688 34.9004H292.313C292.313 34.9004 291.97 34.7725 291.927 34.6019C291.669 33.6638 290.939 32.9388 289.994 32.683C289.994 32.683 289.694 32.4698 289.694 32.2992V30.9346C289.694 30.7213 289.866 30.5508 290.08 30.5508Z" fill="#300A0A"/>
<path d="M319.626 31.1055H322.203C322.203 31.1055 322.503 31.2334 322.503 31.404V33.9626C322.503 33.9626 322.374 34.2611 322.203 34.2611H321.215C321.215 34.2611 320.957 34.1758 320.957 34.0479C320.785 33.3656 320.27 32.8539 319.583 32.6833C319.583 32.6833 319.368 32.5554 319.368 32.4275V31.4466C319.368 31.4466 319.497 31.1481 319.669 31.1481L319.626 31.1055Z" fill="#300A0A"/>
<path d="M349.172 31.7012H350.675C350.675 31.7012 350.847 31.7865 350.847 31.8718V33.3643C350.847 33.3643 350.761 33.5349 350.675 33.5349H350.117C350.117 33.5349 349.988 33.4922 349.945 33.4069C349.816 33.0231 349.515 32.7247 349.129 32.5967C349.129 32.5967 349 32.5114 349 32.4261V31.8718C349 31.8718 349.086 31.7012 349.172 31.7012Z" fill="#300A0A"/>
<path d="M29.4051 59.8044H32.1536C32.1536 59.8044 32.4542 59.9323 32.4542 60.1029V62.8321C32.4542 62.8321 32.3253 63.1306 32.1536 63.1306H31.0799C31.0799 63.1306 30.8223 63.0453 30.7793 62.9174C30.5646 62.1924 30.0063 61.638 29.2763 61.4248C29.2763 61.4248 29.0615 61.2543 29.0615 61.1263V60.0602C29.0615 60.0602 29.1904 59.7617 29.3621 59.7617L29.4051 59.8044Z" fill="#300A0A"/>
<path d="M57.7922 59.0352H61.829C62.0867 59.0352 62.3014 59.2484 62.3014 59.5042V63.5128C62.3014 63.7686 62.0867 63.9818 61.829 63.9818H60.283C60.283 63.9818 59.8965 63.8539 59.8536 63.6407C59.553 62.6173 58.737 61.7644 57.7063 61.5085C57.7063 61.5085 57.3628 61.2953 57.3628 61.0821V59.5469C57.3628 59.291 57.5775 59.0778 57.8352 59.0778L57.7922 59.0352Z" fill="#300A0A"/>
<path d="M86.1789 58.3105H91.4611C91.8047 58.3105 92.0623 58.5664 92.0623 58.9076V64.1527C92.0623 64.4939 91.8047 64.7498 91.4611 64.7498H89.4427C89.185 64.7498 88.9274 64.5792 88.8844 64.3233C88.4979 62.9587 87.4243 61.8926 86.05 61.5088C85.7924 61.4236 85.6206 61.2103 85.6206 60.9544V58.9502C85.6206 58.6091 85.8783 58.3532 86.2218 58.3532L86.1789 58.3105Z" fill="#300A0A"/>
<path d="M114.564 57.5856H121.092C121.478 57.5856 121.822 57.9268 121.822 58.3106V64.7924C121.822 65.1762 121.478 65.5174 121.092 65.5174H118.601C118.257 65.5174 118 65.3042 117.871 64.963C117.398 63.2572 116.067 61.9353 114.349 61.4662C114.049 61.3809 113.791 61.0824 113.791 60.7413V58.2679C113.791 57.8841 114.135 57.543 114.521 57.543L114.564 57.5856Z" fill="#300A0A"/>
<path d="M142.951 56.8177H150.724C151.196 56.8177 151.583 57.2015 151.583 57.6706V65.3891C151.583 65.8582 151.196 66.242 150.724 66.242H147.718C147.331 66.242 146.987 65.9862 146.859 65.6024C146.3 63.5981 144.711 62.0203 142.65 61.4232C142.264 61.338 142.006 60.9542 142.006 60.5704V57.5853C142.006 57.1162 142.392 56.7324 142.865 56.7324L142.951 56.8177Z" fill="#300A0A"/>
<path d="M349.172 60.5273H350.675C350.675 60.5273 350.847 60.6126 350.847 60.6979V62.1905C350.847 62.1905 350.761 62.361 350.675 62.361H350.117C350.117 62.361 349.988 62.3184 349.945 62.2331C349.816 61.8493 349.515 61.5508 349.129 61.4229C349.129 61.4229 349 61.3376 349 61.2523V60.6979C349 60.6979 349.086 60.5273 349.172 60.5273Z" fill="#300A0A"/>
<path d="M319.541 59.8044H322.289C322.289 59.8044 322.59 59.9323 322.59 60.1029V62.8321C322.59 62.8321 322.461 63.1306 322.289 63.1306H321.216C321.216 63.1306 320.958 63.0453 320.915 62.9174C320.7 62.1924 320.142 61.638 319.412 61.4248C319.412 61.4248 319.197 61.2543 319.197 61.1263V60.0602C319.197 60.0602 319.326 59.7617 319.498 59.7617L319.541 59.8044Z" fill="#300A0A"/>
<path d="M289.908 59.0352H293.945C294.202 59.0352 294.417 59.2484 294.417 59.5042V63.5128C294.417 63.7686 294.202 63.9818 293.945 63.9818H292.399C292.399 63.9818 292.012 63.8539 291.969 63.6407C291.669 62.6173 290.853 61.7644 289.822 61.5085C289.822 61.5085 289.479 61.2953 289.479 61.0821V59.5469C289.479 59.291 289.693 59.0778 289.951 59.0778L289.908 59.0352Z" fill="#300A0A"/>
<path d="M260.234 58.3105H265.516C265.86 58.3105 266.118 58.5664 266.118 58.9076V64.1527C266.118 64.4939 265.86 64.7498 265.516 64.7498H263.498C263.24 64.7498 262.983 64.5792 262.94 64.3233C262.553 62.9587 261.479 61.8926 260.105 61.5088C259.848 61.4236 259.676 61.2103 259.676 60.9544V58.9502C259.676 58.6091 259.933 58.3532 260.277 58.3532L260.234 58.3105Z" fill="#300A0A"/>
<path d="M230.601 57.5856H237.129C237.515 57.5856 237.859 57.9268 237.859 58.3106V64.7924C237.859 65.1762 237.515 65.5174 237.129 65.5174H234.638C234.294 65.5174 234.037 65.3042 233.908 64.963C233.435 63.2572 232.104 61.9353 230.386 61.4662C230.086 61.3809 229.828 61.0824 229.828 60.7413V58.2679C229.828 57.8841 230.172 57.543 230.558 57.543L230.601 57.5856Z" fill="#300A0A"/>
<path d="M200.97 56.8177H208.743C209.215 56.8177 209.602 57.2015 209.602 57.6706V65.3891C209.602 65.8582 209.215 66.242 208.743 66.242H205.737C205.35 66.242 205.006 65.9862 204.878 65.6024C204.319 63.5981 202.73 62.0203 200.669 61.4232C200.283 61.338 200.025 60.9542 200.025 60.5704V57.5853C200.025 57.1162 200.411 56.7324 200.884 56.7324L200.97 56.8177Z" fill="#300A0A"/>
<path d="M171.337 56.0938H180.399C180.957 56.0938 181.429 56.5629 181.429 57.1172V66.1151C181.429 66.6694 180.957 67.1385 180.399 67.1385H176.92C176.448 67.1385 176.061 66.84 175.932 66.4136C175.288 64.0682 173.442 62.2345 171.08 61.5948C170.65 61.4669 170.35 61.0831 170.35 60.614V57.1598C170.35 56.6055 170.822 56.1364 171.38 56.1364L171.337 56.0938Z" fill="#300A0A"/>
<path d="M1.01846 89.3555H2.52153C2.52153 89.3555 2.69331 89.4408 2.69331 89.526V91.0186C2.69331 91.0186 2.60741 91.1892 2.52153 91.1892H1.96325C1.96325 91.1892 1.83442 91.1465 1.79147 91.0612C1.66264 90.6774 1.36201 90.3789 0.975509 90.251C0.975509 90.251 0.84668 90.1657 0.84668 90.0804V89.526C0.84668 89.526 0.932573 89.3555 1.01846 89.3555Z" fill="#300A0A"/>
<path d="M29.3191 88.4609H32.2823C32.2823 88.4609 32.6259 88.5889 32.6259 88.8021V91.7445C32.6259 91.7445 32.497 92.0857 32.2823 92.0857H31.1228C31.1228 92.0857 30.8222 92.0004 30.8222 91.8298C30.6075 91.0622 30.0063 90.4652 29.2332 90.252C29.2332 90.252 28.9756 90.0814 28.9756 89.9535V88.8021C28.9756 88.8021 29.1044 88.4609 29.3191 88.4609Z" fill="#300A0A"/>
<path d="M57.5769 87.5645H62.0002C62.2579 87.5645 62.5155 87.7777 62.5155 88.0762V92.4685C62.5155 92.7243 62.3008 92.9802 62.0002 92.9802H60.2824C60.0677 92.9802 59.853 92.8523 59.81 92.6391C59.5094 91.4877 58.6076 90.5922 57.4481 90.2937C57.2333 90.251 57.1045 90.0378 57.1045 89.8246V88.1188C57.1045 87.8629 57.3192 87.6071 57.6198 87.6071L57.5769 87.5645Z" fill="#300A0A"/>
<path d="M85.8776 86.6696H91.761C92.1475 86.6696 92.4052 86.9681 92.4052 87.3092V93.1515C92.4052 93.5353 92.1045 93.7911 91.761 93.7911H89.4849C89.1843 93.7911 88.9266 93.5779 88.8407 93.322C88.4113 91.7869 87.2088 90.5928 85.6628 90.1664C85.3622 90.0811 85.1904 89.8252 85.1904 89.5267V87.2666C85.1904 86.8828 85.4911 86.627 85.8346 86.627L85.8776 86.6696Z" fill="#300A0A"/>
<path d="M114.135 85.7731H121.478C121.951 85.7731 122.294 86.1569 122.294 86.5833V93.8754C122.294 94.3445 121.908 94.6857 121.478 94.6857H118.644C118.257 94.6857 117.957 94.4298 117.828 94.0887C117.313 92.1697 115.81 90.7198 113.877 90.1654C113.534 90.0802 113.276 89.739 113.276 89.3552V86.5407C113.276 86.0716 113.662 85.7305 114.092 85.7305L114.135 85.7731Z" fill="#300A0A"/>
<path d="M142.435 84.9219H151.239C151.797 84.9219 152.227 85.3483 152.227 85.9027V94.6447C152.227 95.199 151.797 95.6255 151.239 95.6255H147.846C147.417 95.6255 147.031 95.327 146.902 94.9005C146.258 92.6404 144.454 90.8494 142.178 90.2097C141.748 90.0818 141.448 89.698 141.448 89.2715V85.9027C141.448 85.3483 141.877 84.9219 142.435 84.9219Z" fill="#300A0A"/>
<path d="M349.172 89.3555H350.675C350.675 89.3555 350.847 89.4408 350.847 89.526V91.0186C350.847 91.0186 350.761 91.1892 350.675 91.1892H350.117C350.117 91.1892 349.988 91.1465 349.945 91.0612C349.816 90.6774 349.515 90.3789 349.129 90.251C349.129 90.251 349 90.1657 349 90.0804V89.526C349 89.526 349.086 89.3555 349.172 89.3555Z" fill="#300A0A"/>
<path d="M319.412 88.4609H322.375C322.375 88.4609 322.719 88.5889 322.719 88.8021V91.7445C322.719 91.7445 322.59 92.0857 322.375 92.0857H321.216C321.216 92.0857 320.915 92.0004 320.915 91.8298C320.7 91.0622 320.099 90.4652 319.326 90.252C319.326 90.252 319.068 90.0814 319.068 89.9535V88.8021C319.068 88.8021 319.197 88.4609 319.412 88.4609Z" fill="#300A0A"/>
<path d="M289.694 87.5645H294.117C294.375 87.5645 294.633 87.7777 294.633 88.0762V92.4685C294.633 92.7243 294.418 92.9802 294.117 92.9802H292.4C292.185 92.9802 291.97 92.8523 291.927 92.6391C291.627 91.4877 290.725 90.5922 289.565 90.2937C289.351 90.251 289.222 90.0378 289.222 89.8246V88.1188C289.222 87.8629 289.436 87.6071 289.737 87.6071L289.694 87.5645Z" fill="#300A0A"/>
<path d="M259.933 86.6696H265.816C266.203 86.6696 266.46 86.9681 266.46 87.3092V93.1515C266.46 93.5353 266.16 93.7911 265.816 93.7911H263.54C263.239 93.7911 262.982 93.5779 262.896 93.322C262.466 91.7869 261.264 90.5928 259.718 90.1664C259.417 90.0811 259.246 89.8252 259.246 89.5267V87.2666C259.246 86.8828 259.546 86.627 259.89 86.627L259.933 86.6696Z" fill="#300A0A"/>
<path d="M230.215 85.7731H237.559C238.031 85.7731 238.375 86.1569 238.375 86.5833V93.8754C238.375 94.3445 237.988 94.6857 237.559 94.6857H234.725C234.338 94.6857 234.037 94.4298 233.909 94.0887C233.393 92.1697 231.89 90.7198 229.958 90.1654C229.614 90.0802 229.356 89.739 229.356 89.3552V86.5407C229.356 86.0716 229.743 85.7305 230.172 85.7305L230.215 85.7731Z" fill="#300A0A"/>
<path d="M200.455 84.9219H209.259C209.817 84.9219 210.246 85.3483 210.246 85.9027V94.6447C210.246 95.199 209.817 95.6255 209.259 95.6255H205.866C205.437 95.6255 205.05 95.327 204.921 94.9005C204.277 92.6404 202.473 90.8494 200.197 90.2097C199.768 90.0818 199.467 89.698 199.467 89.2715V85.9027C199.467 85.3483 199.897 84.9219 200.455 84.9219Z" fill="#300A0A"/>
<path d="M349.172 175.752H350.675C350.675 175.752 350.847 175.837 350.847 175.923V177.415C350.847 177.415 350.761 177.586 350.675 177.586H350.117C350.117 177.586 349.988 177.543 349.945 177.458C349.816 177.074 349.515 176.775 349.129 176.647C349.129 176.647 349 176.562 349 176.477V175.923C349 175.923 349.086 175.752 349.172 175.752Z" fill="#300A0A"/>
<path d="M319.754 175.156H322.116C322.116 175.156 322.374 175.284 322.374 175.412V177.757C322.374 177.757 322.245 178.013 322.116 178.013H321.214C321.214 178.013 321 177.928 320.957 177.8C320.785 177.203 320.313 176.691 319.668 176.521C319.668 176.521 319.454 176.393 319.454 176.265V175.369C319.454 175.369 319.582 175.113 319.711 175.113L319.754 175.156Z" fill="#300A0A"/>
<path d="M290.294 174.559H293.515C293.515 174.559 293.859 174.729 293.859 174.9V178.098C293.859 178.098 293.687 178.439 293.515 178.439H292.27C292.27 178.439 291.969 178.311 291.926 178.183C291.711 177.33 291.024 176.691 290.208 176.478C290.208 176.478 289.951 176.307 289.951 176.136V174.9C289.951 174.9 290.122 174.559 290.294 174.559Z" fill="#300A0A"/>
<path d="M260.836 173.961H264.915C265.173 173.961 265.388 174.174 265.388 174.43V178.481C265.388 178.737 265.173 178.95 264.915 178.95H263.369C263.369 178.95 262.983 178.822 262.94 178.609C262.639 177.543 261.823 176.733 260.75 176.434C260.75 176.434 260.406 176.221 260.406 176.008V174.473C260.406 174.217 260.621 174.004 260.879 174.004L260.836 173.961Z" fill="#300A0A"/>
<path d="M231.418 173.363H236.357C236.657 173.363 236.915 173.619 236.915 173.918V178.822C236.915 179.12 236.657 179.376 236.357 179.376H234.467C234.21 179.376 233.995 179.205 233.952 178.992C233.608 177.713 232.578 176.732 231.289 176.348C231.032 176.263 230.903 176.05 230.903 175.837V173.96C230.903 173.662 231.16 173.406 231.461 173.406L231.418 173.363Z" fill="#300A0A"/>
<path d="M201.958 172.766H207.755C208.099 172.766 208.399 173.064 208.399 173.405V179.162C208.399 179.503 208.099 179.802 207.755 179.802H205.522C205.222 179.802 204.964 179.589 204.878 179.333C204.448 177.84 203.289 176.646 201.786 176.262C201.485 176.177 201.313 175.921 201.313 175.623V173.405C201.313 173.064 201.614 172.766 201.958 172.766Z" fill="#300A0A"/>
<path d="M1.01846 175.752H2.52153C2.52153 175.752 2.69331 175.837 2.69331 175.923V177.415C2.69331 177.415 2.60741 177.586 2.52153 177.586H1.96325C1.96325 177.586 1.83442 177.543 1.79147 177.458C1.66264 177.074 1.36201 176.775 0.975509 176.647C0.975509 176.647 0.84668 176.562 0.84668 176.477V175.923C0.84668 175.923 0.932573 175.752 1.01846 175.752Z" fill="#300A0A"/>
<path d="M29.6204 175.156H31.9824C31.9824 175.156 32.2401 175.284 32.2401 175.412V177.757C32.2401 177.757 32.1112 178.013 31.9824 178.013H31.0806C31.0806 178.013 30.8659 177.928 30.8229 177.8C30.6511 177.203 30.1787 176.691 29.5346 176.521C29.5346 176.521 29.3198 176.393 29.3198 176.265V175.369C29.3198 175.369 29.4487 175.113 29.5775 175.113L29.6204 175.156Z" fill="#300A0A"/>
<path d="M58.178 174.559H61.3989C61.3989 174.559 61.7425 174.729 61.7425 174.9V178.098C61.7425 178.098 61.5707 178.439 61.3989 178.439H60.1535C60.1535 178.439 59.8529 178.311 59.81 178.183C59.5952 177.33 58.9081 176.691 58.0922 176.478C58.0922 176.478 57.8345 176.307 57.8345 176.136V174.9C57.8345 174.9 58.0063 174.559 58.178 174.559Z" fill="#300A0A"/>
<path d="M86.78 173.961H90.8598C91.1174 173.961 91.3322 174.174 91.3322 174.43V178.481C91.3322 178.737 91.1174 178.95 90.8598 178.95H89.3138C89.3138 178.95 88.9273 178.822 88.8843 178.609C88.5837 177.543 87.7677 176.733 86.6941 176.434C86.6941 176.434 86.3506 176.221 86.3506 176.008V174.473C86.3506 174.217 86.5653 174.004 86.8229 174.004L86.78 173.961Z" fill="#300A0A"/>
<path d="M115.381 173.363H120.319C120.62 173.363 120.877 173.619 120.877 173.918V178.822C120.877 179.12 120.62 179.376 120.319 179.376H118.43C118.172 179.376 117.957 179.205 117.914 178.992C117.571 177.713 116.54 176.732 115.252 176.348C114.994 176.263 114.865 176.05 114.865 175.837V173.96C114.865 173.662 115.123 173.406 115.423 173.406L115.381 173.363Z" fill="#300A0A"/>
<path d="M143.938 172.766H149.736C150.079 172.766 150.38 173.064 150.38 173.405V179.162C150.38 179.503 150.079 179.802 149.736 179.802H147.503C147.202 179.802 146.944 179.589 146.858 179.333C146.429 177.84 145.269 176.646 143.766 176.262C143.466 176.177 143.294 175.921 143.294 175.623V173.405C143.294 173.064 143.595 172.766 143.938 172.766Z" fill="#300A0A"/>
<path d="M172.54 172.17H179.154C179.583 172.17 179.884 172.511 179.884 172.895V179.462C179.884 179.888 179.54 180.187 179.154 180.187H176.62C176.276 180.187 175.976 179.973 175.89 179.632C175.417 177.927 174.043 176.562 172.325 176.093C171.982 176.008 171.767 175.709 171.767 175.368V172.852C171.767 172.425 172.111 172.127 172.497 172.127L172.54 172.17Z" fill="#300A0A"/>
<path d="M349.172 146.969H350.675C350.675 146.969 350.847 147.054 350.847 147.139V148.632C350.847 148.632 350.761 148.802 350.675 148.802H350.117C350.117 148.802 349.988 148.76 349.945 148.674C349.816 148.291 349.515 147.992 349.129 147.864C349.129 147.864 349 147.779 349 147.694V147.139C349 147.139 349.086 146.969 349.172 146.969Z" fill="#300A0A"/>
<path d="M319.626 146.242H322.203C322.203 146.242 322.503 146.37 322.503 146.541V149.099C322.503 149.099 322.374 149.398 322.203 149.398H321.215C321.215 149.398 320.957 149.313 320.957 149.185C320.785 148.502 320.27 147.991 319.583 147.82C319.583 147.82 319.368 147.692 319.368 147.564V146.583C319.368 146.583 319.497 146.285 319.669 146.285L319.626 146.242Z" fill="#300A0A"/>
<path d="M290.08 145.561H293.688C293.902 145.561 294.074 145.731 294.074 145.944V149.526C294.074 149.74 293.902 149.91 293.688 149.91H292.313C292.313 149.91 291.97 149.782 291.927 149.612C291.669 148.674 290.939 147.949 289.994 147.693C289.994 147.693 289.694 147.48 289.694 147.309V145.944C289.694 145.731 289.866 145.561 290.08 145.561Z" fill="#300A0A"/>
<path d="M260.534 144.877H265.215C265.515 144.877 265.73 145.09 265.73 145.389V150.037C265.73 150.335 265.515 150.549 265.215 150.549H263.411C263.153 150.549 262.982 150.378 262.896 150.165C262.552 148.971 261.607 147.99 260.405 147.691C260.19 147.649 260.019 147.436 260.019 147.18V145.389C260.019 145.09 260.233 144.877 260.534 144.877Z" fill="#300A0A"/>
<path d="M230.987 144.195H236.699C237.043 144.195 237.343 144.494 237.343 144.835V150.507C237.343 150.848 237.043 151.146 236.699 151.146H234.509C234.208 151.146 233.951 150.976 233.908 150.677C233.478 149.185 232.319 148.033 230.816 147.607C230.558 147.522 230.343 147.266 230.343 147.01V144.835C230.343 144.494 230.644 144.195 230.987 144.195Z" fill="#300A0A"/>
<path d="M201.485 143.471H208.271C208.7 143.471 209.044 143.812 209.044 144.238V150.976C209.044 151.402 208.7 151.744 208.271 151.744H205.651C205.308 151.744 205.007 151.53 204.921 151.189C204.449 149.441 203.031 148.076 201.271 147.565C200.927 147.479 200.712 147.181 200.712 146.84V144.238C200.712 143.812 201.056 143.471 201.485 143.471Z" fill="#300A0A"/>
<path d="M1.01846 146.969H2.52153C2.52153 146.969 2.69331 147.054 2.69331 147.139V148.632C2.69331 148.632 2.60741 148.802 2.52153 148.802H1.96325C1.96325 148.802 1.83442 148.76 1.79147 148.674C1.66264 148.291 1.36201 147.992 0.975509 147.864C0.975509 147.864 0.84668 147.779 0.84668 147.694V147.139C0.84668 147.139 0.932573 146.969 1.01846 146.969Z" fill="#300A0A"/>
<path d="M29.4915 146.244H32.0682C32.0682 146.244 32.3688 146.372 32.3688 146.543V149.101C32.3688 149.101 32.24 149.4 32.0682 149.4H31.0805C31.0805 149.4 30.8229 149.315 30.8229 149.187C30.6511 148.504 30.1357 147.993 29.4486 147.822C29.4486 147.822 29.2339 147.694 29.2339 147.566V146.585C29.2339 146.585 29.3627 146.287 29.5345 146.287L29.4915 146.244Z" fill="#300A0A"/>
<path d="M58.0061 145.561H61.6135C61.8282 145.561 62 145.731 62 145.944V149.526C62 149.74 61.8282 149.91 61.6135 149.91H60.2393C60.2393 149.91 59.8957 149.782 59.8527 149.612C59.5951 148.674 58.865 147.949 57.9202 147.693C57.9202 147.693 57.6196 147.48 57.6196 147.309V145.944C57.6196 145.731 57.7914 145.561 58.0061 145.561Z" fill="#300A0A"/>
<path d="M86.4787 144.879H91.1597C91.4603 144.879 91.675 145.092 91.675 145.391V150.039C91.675 150.337 91.4603 150.551 91.1597 150.551H89.356C89.0984 150.551 88.9266 150.38 88.8407 150.167C88.4971 148.973 87.5524 147.992 86.3499 147.693C86.1352 147.651 85.9634 147.438 85.9634 147.182V145.391C85.9634 145.092 86.1781 144.879 86.4787 144.879Z" fill="#300A0A"/>
<path d="M114.951 144.197H120.663C121.007 144.197 121.307 144.496 121.307 144.837V150.509C121.307 150.85 121.007 151.148 120.663 151.148H118.473C118.172 151.148 117.915 150.978 117.872 150.679C117.442 149.187 116.283 148.035 114.78 147.609C114.522 147.523 114.307 147.268 114.307 147.012V144.837C114.307 144.496 114.608 144.197 114.951 144.197Z" fill="#300A0A"/>
<path d="M143.423 143.471H150.208C150.638 143.471 150.981 143.812 150.981 144.238V150.976C150.981 151.402 150.638 151.744 150.208 151.744H147.589C147.245 151.744 146.944 151.53 146.858 151.189C146.386 149.441 144.969 148.076 143.208 147.565C142.865 147.479 142.65 147.181 142.65 146.84V144.238C142.65 143.812 142.993 143.471 143.423 143.471Z" fill="#300A0A"/>
<path d="M171.939 142.789H179.798C180.27 142.789 180.7 143.173 180.7 143.685V151.488C180.7 151.958 180.313 152.384 179.798 152.384H176.792C176.405 152.384 176.062 152.128 175.933 151.744C175.375 149.697 173.786 148.12 171.724 147.565C171.338 147.48 171.08 147.096 171.08 146.712V143.727C171.08 143.258 171.467 142.832 171.982 142.832L171.939 142.789Z" fill="#300A0A"/>
<path d="M349.172 118.141H350.675C350.675 118.141 350.847 118.226 350.847 118.311V119.804C350.847 119.804 350.761 119.974 350.675 119.974H350.117C350.117 119.974 349.988 119.932 349.945 119.846C349.816 119.463 349.515 119.164 349.129 119.036C349.129 119.036 349 118.951 349 118.866V118.311C349 118.311 349.086 118.141 349.172 118.141Z" fill="#300A0A"/>
<path d="M319.541 117.373H322.289C322.289 117.373 322.59 117.501 322.59 117.671V120.4C322.59 120.4 322.461 120.699 322.289 120.699H321.216C321.216 120.699 320.958 120.614 320.915 120.486C320.7 119.761 320.142 119.206 319.412 118.993C319.412 118.993 319.197 118.823 319.197 118.695V117.629C319.197 117.629 319.326 117.33 319.498 117.33L319.541 117.373Z" fill="#300A0A"/>
<path d="M289.908 116.562H293.945C294.202 116.562 294.417 116.776 294.417 117.032V121.04C294.417 121.296 294.202 121.509 293.945 121.509H292.399C292.399 121.509 292.012 121.381 291.969 121.168C291.669 120.145 290.853 119.292 289.822 119.036C289.822 119.036 289.479 118.823 289.479 118.609V117.074C289.479 116.818 289.693 116.605 289.951 116.605L289.908 116.562Z" fill="#300A0A"/>
<path d="M260.234 115.795H265.516C265.86 115.795 266.118 116.051 266.118 116.392V121.637C266.118 121.978 265.86 122.234 265.516 122.234H263.498C263.24 122.234 262.983 122.064 262.94 121.808C262.553 120.443 261.479 119.377 260.105 118.993C259.848 118.908 259.676 118.695 259.676 118.439V116.435C259.676 116.093 259.933 115.838 260.277 115.838L260.234 115.795Z" fill="#300A0A"/>
<path d="M230.601 114.984H237.129C237.515 114.984 237.859 115.325 237.859 115.709V122.191C237.859 122.575 237.515 122.916 237.129 122.916H234.638C234.294 122.916 234.037 122.703 233.908 122.361C233.435 120.656 232.104 119.334 230.386 118.865C230.086 118.779 229.828 118.481 229.828 118.14V115.666C229.828 115.283 230.172 114.941 230.558 114.941L230.601 114.984Z" fill="#300A0A"/>
<path d="M200.97 114.175H208.743C209.215 114.175 209.602 114.559 209.602 115.028V122.747C209.602 123.216 209.215 123.599 208.743 123.599H205.737C205.35 123.599 205.006 123.344 204.878 122.96C204.319 120.956 202.73 119.378 200.669 118.781C200.283 118.695 200.025 118.312 200.025 117.928V114.943C200.025 114.474 200.411 114.09 200.884 114.09L200.97 114.175Z" fill="#300A0A"/>
<path d="M1.01846 118.141H2.52153C2.52153 118.141 2.69331 118.226 2.69331 118.311V119.804C2.69331 119.804 2.60741 119.974 2.52153 119.974H1.96325C1.96325 119.974 1.83442 119.932 1.79147 119.846C1.66264 119.463 1.36201 119.164 0.975509 119.036C0.975509 119.036 0.84668 118.951 0.84668 118.866V118.311C0.84668 118.311 0.932573 118.141 1.01846 118.141Z" fill="#300A0A"/>
<path d="M29.4056 117.371H32.154C32.154 117.371 32.4547 117.499 32.4547 117.669V120.398C32.4547 120.398 32.3258 120.697 32.154 120.697H31.0804C31.0804 120.697 30.8228 120.612 30.7798 120.484C30.5651 119.759 30.0068 119.204 29.2767 118.991C29.2767 118.991 29.062 118.821 29.062 118.693V117.627C29.062 117.627 29.1908 117.328 29.3626 117.328L29.4056 117.371Z" fill="#300A0A"/>
<path d="M57.7922 116.562H61.829C62.0867 116.562 62.3014 116.776 62.3014 117.032V121.04C62.3014 121.296 62.0867 121.509 61.829 121.509H60.283C60.283 121.509 59.8965 121.381 59.8536 121.168C59.553 120.145 58.737 119.292 57.7063 119.036C57.7063 119.036 57.3628 118.823 57.3628 118.609V117.074C57.3628 116.818 57.5775 116.605 57.8352 116.605L57.7922 116.562Z" fill="#300A0A"/>
<path d="M86.1789 115.795H91.4611C91.8047 115.795 92.0623 116.051 92.0623 116.392V121.637C92.0623 121.978 91.8047 122.234 91.4611 122.234H89.4427C89.185 122.234 88.9274 122.064 88.8844 121.808C88.4979 120.443 87.4243 119.377 86.05 118.993C85.7924 118.908 85.6206 118.695 85.6206 118.439V116.435C85.6206 116.093 85.8783 115.838 86.2218 115.838L86.1789 115.795Z" fill="#300A0A"/>
<path d="M114.564 114.984H121.092C121.478 114.984 121.822 115.325 121.822 115.709V122.191C121.822 122.575 121.478 122.916 121.092 122.916H118.601C118.257 122.916 118 122.703 117.871 122.361C117.398 120.656 116.067 119.334 114.349 118.865C114.049 118.779 113.791 118.481 113.791 118.14V115.666C113.791 115.283 114.135 114.941 114.521 114.941L114.564 114.984Z" fill="#300A0A"/>
<path d="M142.951 114.175H150.724C151.196 114.175 151.583 114.559 151.583 115.028V122.747C151.583 123.216 151.196 123.599 150.724 123.599H147.718C147.331 123.599 146.987 123.344 146.859 122.96C146.3 120.956 144.711 119.378 142.65 118.781C142.264 118.695 142.006 118.312 142.006 117.928V114.943C142.006 114.474 142.392 114.09 142.865 114.09L142.951 114.175Z" fill="#300A0A"/>
<path d="M171.337 113.406H180.399C180.957 113.406 181.429 113.875 181.429 114.43V123.428C181.429 123.982 180.957 124.451 180.399 124.451H176.92C176.448 124.451 176.061 124.153 175.932 123.726C175.288 121.381 173.442 119.547 171.08 118.907C170.65 118.779 170.35 118.396 170.35 117.926V114.472C170.35 113.918 170.822 113.449 171.38 113.449L171.337 113.406Z" fill="#300A0A"/>
<path d="M170.736 84.0254H181C181.644 84.0254 182.16 84.5371 182.16 85.1768V95.3686C182.16 96.0083 181.644 96.5201 181 96.5201H177.049C176.534 96.5201 176.061 96.1789 175.933 95.6672C175.202 93.0232 173.098 90.9337 170.436 90.2087C169.92 90.0808 169.577 89.6118 169.577 89.1V85.1768C169.577 84.5371 170.092 84.0254 170.736 84.0254Z" fill="#300A0A"/>
</svg>
