<svg width="228" height="228" viewBox="0 0 228 228" fill="none" xmlns="http://www.w3.org/2000/svg">
<path d="M221.852 14.7997V1.90735C221.852 1.09634 221.212 0.453125 220.404 0.453125H207.565C206.758 0.453125 206.117 1.09634 206.117 1.90735V6.85732C206.117 7.50054 206.563 8.08783 207.175 8.25562C210.517 9.1785 213.163 11.8353 214.082 15.1912C214.249 15.8064 214.834 16.2539 215.475 16.2539H220.404C221.212 16.2539 221.852 15.6107 221.852 14.7997Z" fill="#300A0A"/>
<path d="M223.606 84.8823V69.1095C223.606 68.1307 222.826 67.3477 221.851 67.3477H206.144C205.169 67.3477 204.39 68.1307 204.39 69.1095V75.1781C204.39 75.9891 204.919 76.6883 205.699 76.884C209.792 78.0306 212.995 81.2467 214.137 85.3577C214.36 86.1128 215.056 86.6721 215.836 86.6721H221.879C222.854 86.6721 223.634 85.8891 223.634 84.9103L223.606 84.8823Z" fill="#300A0A"/>
<path d="M153.649 83.6796V69.9483C153.649 69.0813 152.952 68.4102 152.117 68.4102H138.443C137.58 68.4102 136.911 69.1093 136.911 69.9483V75.2339C136.911 75.933 137.385 76.5483 138.053 76.716C141.618 77.7228 144.43 80.5194 145.405 84.0991C145.6 84.7702 146.185 85.2457 146.881 85.2457H152.145C153.008 85.2457 153.676 84.5465 153.676 83.7075L153.649 83.6796Z" fill="#300A0A"/>
<path d="M83.6632 82.4774V70.7597C83.6632 70.0326 83.0783 69.4453 82.3543 69.4453H70.6854C69.9613 69.4453 69.3765 70.0326 69.3765 70.7597V75.2622C69.3765 75.8495 69.7664 76.3809 70.3512 76.5207C73.3868 77.3597 75.7818 79.7647 76.6173 82.813C76.7844 83.3724 77.2857 83.7918 77.8705 83.7918H82.3543C83.0783 83.7918 83.6632 83.2046 83.6632 82.4774Z" fill="#300A0A"/>
<path d="M225.36 154.966V136.312C225.36 135.166 224.413 134.215 223.272 134.215H204.696C203.554 134.215 202.607 135.166 202.607 136.312V143.472C202.607 144.422 203.22 145.233 204.139 145.485C208.985 146.828 212.772 150.631 214.109 155.497C214.36 156.392 215.195 157.035 216.114 157.035H223.244C224.386 157.035 225.333 156.084 225.333 154.938L225.36 154.966Z" fill="#300A0A"/>
<path d="M155.096 153.595V137.458C155.096 136.452 154.289 135.641 153.286 135.641H137.217C136.214 135.641 135.407 136.452 135.407 137.458V143.667C135.407 144.478 135.936 145.205 136.744 145.429C140.949 146.603 144.207 149.903 145.377 154.098C145.6 154.881 146.296 155.441 147.131 155.441H153.314C154.316 155.441 155.124 154.63 155.124 153.623L155.096 153.595Z" fill="#300A0A"/>
<path d="M84.8331 152.197V138.577C84.8331 137.738 84.1369 137.039 83.3014 137.039H69.7388C68.9033 137.039 68.207 137.738 68.207 138.577V143.807C68.207 144.506 68.6526 145.093 69.321 145.289C72.8579 146.268 75.6428 149.064 76.6175 152.616C76.8125 153.287 77.3973 153.735 78.0936 153.735H83.3014C84.1369 153.735 84.8331 153.036 84.8331 152.197Z" fill="#300A0A"/>
<path d="M15.4597 220.378V207.821C15.4597 207.038 14.8192 206.395 14.0394 206.395H1.53506C0.755282 206.395 0.114746 207.038 0.114746 207.821V212.631C0.114746 213.274 0.532486 213.833 1.14517 214.001C4.40355 214.924 6.96569 217.469 7.85687 220.741C8.02397 221.356 8.58095 221.776 9.22149 221.776H14.0116C14.7914 221.776 15.4319 221.133 15.4319 220.35L15.4597 220.378Z" fill="#300A0A"/>
<path d="M86.0021 221.944V206.395C86.0021 205.416 85.2223 204.633 84.2475 204.633H68.7633C67.7886 204.633 67.0088 205.416 67.0088 206.395V212.351C67.0088 213.134 67.5379 213.834 68.2899 214.029C72.328 215.148 75.475 218.336 76.6168 222.391C76.8396 223.146 77.508 223.678 78.2878 223.678H84.2197C85.1944 223.678 85.9742 222.895 85.9742 221.916L86.0021 221.944Z" fill="#300A0A"/>
<path d="M156.573 223.51V204.969C156.573 203.822 155.654 202.871 154.484 202.871H136.02C134.878 202.871 133.931 203.794 133.931 204.969V212.1C133.931 213.051 134.544 213.862 135.463 214.113C140.281 215.456 144.04 219.231 145.377 224.069C145.628 224.964 146.436 225.607 147.382 225.607H154.484C155.626 225.607 156.573 224.685 156.573 223.51Z" fill="#300A0A"/>
<path d="M227.115 225.049V203.515C227.115 202.173 226.029 201.082 224.692 201.082H203.248C201.911 201.082 200.825 202.173 200.825 203.515V211.793C200.825 212.884 201.549 213.834 202.58 214.114C208.177 215.68 212.55 220.071 214.109 225.692C214.388 226.755 215.363 227.454 216.421 227.454H224.664C226.001 227.454 227.087 226.363 227.087 225.021L227.115 225.049Z" fill="#300A0A"/>
</svg>
