<svg width="72" height="93" viewBox="0 0 72 93" fill="none" xmlns="http://www.w3.org/2000/svg">
<path id="Vector" d="M0.13916 63.2744V50.6445H1.71924C1.71924 69.1945 18.6991 82.8845 36.8491 82.8845C52.1091 82.8845 61.189 75.6444 61.189 66.9644C61.189 59.2044 56.7092 55.6444 45.9292 52.4944L21.459 45.5144C10.539 42.3544 0.798828 36.3045 0.798828 24.5945C0.798828 11.3045 13.6892 0.644531 36.1992 0.644531C55.6792 0.644531 69.7588 10.9044 69.7588 21.9644V37.2244H68.1792C68.1792 24.3344 55.4189 10.2544 33.8389 10.2544C18.7089 10.2544 11.209 17.0945 11.209 24.3345C11.209 30.2545 16.8691 33.6746 25.2891 36.1746L50.0288 43.2844C60.6888 46.3144 71.8691 51.9644 71.8691 66.0444C71.8691 80.9144 56.9989 92.4944 36.3389 92.4944C15.6789 92.4944 0.148926 84.7344 0.148926 63.2844L0.13916 63.2744Z" fill="#300A0A"/>
</svg>
