<svg width="42" height="43" viewBox="0 0 42 43" fill="none" xmlns="http://www.w3.org/2000/svg">
<g id="Group">
<g id="&#38;lt;Repeti&#195;&#131;&#194;&#167;&#195;&#131;&#194;&#163;o radial&#38;gt;">
<path id="Vector" d="M16.6792 39.4844L20.7192 35.4443C20.9692 35.1943 21.3789 35.1943 21.6289 35.4443L25.6689 39.4844C25.9189 39.7344 25.9189 40.1445 25.6689 40.3945L24.1191 41.9443C23.9191 42.1443 23.5991 42.1944 23.3491 42.0544C21.9991 41.2944 20.349 41.2944 18.999 42.0544C18.749 42.1944 18.429 42.1543 18.229 41.9443L16.6792 40.3945C16.4292 40.1445 16.4292 39.7344 16.6792 39.4844Z" fill="#300A0A"/>
</g>
<g id="&#38;lt;Repeti&#195;&#131;&#194;&#167;&#195;&#131;&#194;&#163;o radial&#38;gt;_2">
<path id="Vector_2" d="M5.15918 30.9746H10.8789C11.2389 30.9746 11.519 31.2647 11.519 31.6147V37.3347C11.519 37.6947 11.2289 37.9746 10.8789 37.9746H8.6792C8.3892 37.9746 8.13908 37.7846 8.05908 37.5046C7.64908 36.0146 6.47926 34.8448 4.98926 34.4348C4.70926 34.3548 4.51904 34.1047 4.51904 33.8147V31.6147C4.51904 31.2547 4.80918 30.9746 5.15918 30.9746Z" fill="#300A0A"/>
</g>
<g id="&#38;lt;Repeti&#195;&#131;&#194;&#167;&#195;&#131;&#194;&#163;o radial&#38;gt;_3">
<path id="Vector_3" d="M3.01883 16.8145L7.05887 20.8545C7.30887 21.1045 7.30887 21.5144 7.05887 21.7644L3.01883 25.8044C2.76883 26.0544 2.35868 26.0544 2.10868 25.8044L0.558874 24.2544C0.358874 24.0544 0.309011 23.7344 0.449011 23.4844C1.20901 22.1344 1.20901 20.4845 0.449011 19.1345C0.309011 18.8845 0.348874 18.5645 0.558874 18.3645L2.10868 16.8145C2.35868 16.5645 2.76883 16.5645 3.01883 16.8145Z" fill="#300A0A"/>
</g>
<g id="&#38;lt;Repeti&#195;&#131;&#194;&#167;&#195;&#131;&#194;&#163;o radial&#38;gt;_4">
<path id="Vector_4" d="M11.519 5.28442V11.0044C11.519 11.3644 11.2289 11.6445 10.8789 11.6445H5.15918C4.79918 11.6445 4.51904 11.3544 4.51904 11.0044V8.80444C4.51904 8.51444 4.70926 8.26457 4.98926 8.18457C6.47926 7.77457 7.64908 6.6045 8.05908 5.1145C8.13908 4.8345 8.3892 4.64453 8.6792 4.64453H10.8789C11.2389 4.64453 11.519 4.93442 11.519 5.28442Z" fill="#300A0A"/>
</g>
<g id="&#38;lt;Repeti&#195;&#131;&#194;&#167;&#195;&#131;&#194;&#163;o radial&#38;gt;_5">
<path id="Vector_5" d="M25.6792 3.14448L21.6392 7.18452C21.3892 7.43452 20.979 7.43452 20.729 7.18452L16.689 3.14448C16.439 2.89448 16.439 2.48433 16.689 2.23433L18.2393 0.684523C18.4393 0.484523 18.7588 0.434415 19.0088 0.574415C20.3588 1.33442 22.0089 1.33442 23.3589 0.574415C23.6089 0.434415 23.9289 0.474523 24.1289 0.684523L25.6792 2.23433C25.9292 2.48433 25.9292 2.89448 25.6792 3.14448Z" fill="#300A0A"/>
</g>
<g id="&#38;lt;Repeti&#195;&#131;&#194;&#167;&#195;&#131;&#194;&#163;o radial&#38;gt;_6">
<path id="Vector_6" d="M37.209 11.6445H31.4893C31.1293 11.6445 30.8491 11.3544 30.8491 11.0044V5.28442C30.8491 4.92442 31.1393 4.64453 31.4893 4.64453H33.689C33.979 4.64453 34.2291 4.8345 34.3091 5.1145C34.7191 6.6045 35.8889 7.77457 37.3789 8.18457C37.6589 8.26457 37.8491 8.51444 37.8491 8.80444V11.0044C37.8491 11.3644 37.559 11.6445 37.209 11.6445Z" fill="#300A0A"/>
</g>
<g id="&#38;lt;Repeti&#195;&#131;&#194;&#167;&#195;&#131;&#194;&#163;o radial&#38;gt;_7">
<path id="Vector_7" d="M39.3491 25.8142L35.3091 21.7742C35.0591 21.5242 35.0591 21.1143 35.3091 20.8643L39.3491 16.8242C39.5991 16.5742 40.0088 16.5742 40.2588 16.8242L41.8091 18.3743C42.0091 18.5743 42.0589 18.8943 41.9189 19.1443C41.1589 20.4943 41.1589 22.1441 41.9189 23.4941C42.0589 23.7441 42.0191 24.0642 41.8091 24.2642L40.2588 25.8142C40.0088 26.0642 39.5991 26.0642 39.3491 25.8142Z" fill="#300A0A"/>
</g>
<g id="&#38;lt;Repeti&#195;&#131;&#194;&#167;&#195;&#131;&#194;&#163;o radial&#38;gt;_8">
<path id="Vector_8" d="M30.8491 37.3347V31.6147C30.8491 31.2547 31.1393 30.9746 31.4893 30.9746H37.209C37.569 30.9746 37.8491 31.2647 37.8491 31.6147V33.8147C37.8491 34.1047 37.6589 34.3548 37.3789 34.4348C35.8889 34.8448 34.7191 36.0146 34.3091 37.5046C34.2291 37.7846 33.979 37.9746 33.689 37.9746H31.4893C31.1293 37.9746 30.8491 37.6847 30.8491 37.3347Z" fill="#300A0A"/>
</g>
</g>
</svg>
