<svg width="284" height="40" viewBox="0 0 284 40" fill="none" xmlns="http://www.w3.org/2000/svg">
<path d="M0.682129 1.11328H18.6194C26.9968 1.11328 31.5767 7.79193 31.5767 13.9029C31.5767 20.0139 27.2763 26.6367 19.015 26.6367H5.15039V39.0307H0.682129V1.11328ZM17.3765 22.5039C23.9993 22.5039 27.0526 18.2593 27.0526 13.9029C27.0526 9.54653 23.6597 5.24609 18.5077 5.24609H5.15459V22.5082H17.3765V22.5039Z" fill="#300A0A"/>
<path d="M36.1351 1.11368H54.9797C62.6174 1.11368 66.806 6.82904 66.806 12.0928C66.806 17.6405 62.6777 23.2398 54.7519 23.2398H51.2987L68.0489 39.0268H61.6541L45.2436 23.2398C42.7536 20.8616 41.8462 20.182 40.6033 20.1261V39.0268H36.1309V1.10938L36.1351 1.11368ZM53.3973 19.3349C59.7921 19.3349 62.4541 15.7138 62.4541 12.0928C62.4541 8.47182 59.4522 5.24649 54.8722 5.24649H40.6119V19.3392H53.4015L53.3973 19.3349Z" fill="#300A0A"/>
<path d="M72.8745 1.11328H101.735V5.24609H77.3426V17.5283H99.245V21.6008H77.3426V34.8979H101.735V39.0307H72.8745V1.11328Z" fill="#300A0A"/>
<path d="M104.564 19.9582C104.564 8.52755 113.393 0.322266 125.052 0.322266C130.823 0.322266 135.636 2.41657 139.029 6.2053V12.7119H138.461C137.046 8.29958 131.898 4.56248 125.048 4.56248C115.427 4.56248 109.089 11.2971 109.089 19.8981C109.089 28.499 115.427 35.5733 125.615 35.5733C133.481 35.5733 139.084 30.5374 139.084 24.5382H139.764V28.3872C139.764 36.0249 132.918 39.8178 125.108 39.8178C113.393 39.8178 104.564 31.5007 104.564 19.9539V19.9582Z" fill="#300A0A"/>
<path d="M146.206 1.11328H150.734V39.0307H146.206V1.11328Z" fill="#300A0A"/>
<path d="M157.71 27.2561V21.8247H158.389C158.389 29.8021 165.692 35.6894 173.497 35.6894C180.06 35.6894 183.964 32.5758 183.964 28.843C183.964 25.5058 182.038 23.9749 177.402 22.6202L166.879 19.6185C162.182 18.2595 157.994 15.6578 157.994 10.6219C157.994 4.90656 163.537 0.322266 173.218 0.322266C181.595 0.322266 187.65 4.73449 187.65 9.49082V16.0534H186.97C186.97 10.51 181.483 4.45497 172.202 4.45497C165.696 4.45497 162.471 7.39654 162.471 10.5101C162.471 13.056 164.905 14.5268 168.526 15.6019L179.165 18.6595C183.749 19.9625 188.557 22.3923 188.557 28.4474C188.557 34.8422 182.162 39.8221 173.278 39.8221C164.393 39.8221 157.714 36.485 157.714 27.2605L157.71 27.2561Z" fill="#300A0A"/>
<path d="M194.982 1.11328H199.511V39.0307H194.982V1.11328Z" fill="#300A0A"/>
<path d="M205.514 19.9582C205.514 8.81138 214.003 0.322266 225.266 0.322266C236.529 0.322266 245.014 8.81138 245.014 19.9582C245.014 31.1051 236.525 39.8221 225.266 39.8221C214.008 39.8221 205.514 31.2212 205.514 19.9582ZM240.49 19.9582C240.49 11.525 234.435 4.51093 225.266 4.51093C216.098 4.51093 210.043 11.5293 210.043 19.9582C210.043 28.3872 216.098 35.6335 225.266 35.6335C234.435 35.6335 240.49 28.6151 240.49 19.9582Z" fill="#300A0A"/>
<path d="M255.499 3.48756V39.0268H250.97V1.10938H259.176L278.923 36.9884V1.10938H283.452V39.0268H275.074L255.494 3.48756H255.499Z" fill="#300A0A"/>
</svg>
