<svg width="284" height="40" viewBox="0 0 284 40" fill="none" xmlns="http://www.w3.org/2000/svg">
<path d="M0.681885 1.11328H18.6192C26.9965 1.11328 31.5765 7.79193 31.5765 13.9029C31.5765 20.0139 27.276 26.6367 19.0148 26.6367H5.15015V39.0307H0.681885V1.11328ZM17.3763 22.5039C23.999 22.5039 27.0524 18.2593 27.0524 13.9029C27.0524 9.54653 23.6595 5.24609 18.5075 5.24609H5.15435V22.5082H17.3763V22.5039Z" fill="#F5733D"/>
<path d="M36.135 1.11466H54.9797C62.6173 1.11466 66.806 6.83001 66.806 12.0938C66.806 17.6414 62.6776 23.2407 54.7519 23.2407H51.2987L68.0489 39.0278H61.654L45.2435 23.2407C42.7536 20.8626 41.8461 20.183 40.6033 20.1271V39.0278H36.1308V1.11035L36.135 1.11466ZM53.3972 19.3359C59.7921 19.3359 62.4541 15.7148 62.4541 12.0938C62.4541 8.4728 59.4522 5.24747 54.8722 5.24747H40.6119V19.3402H53.4014L53.3972 19.3359Z" fill="#F5733D"/>
<path d="M72.8741 1.11328H101.735V5.24609H77.3422V17.5283H99.2446V21.6008H77.3422V34.8979H101.735V39.0307H72.8741V1.11328Z" fill="#F5733D"/>
<path d="M104.564 19.9582C104.564 8.52755 113.393 0.322266 125.052 0.322266C130.823 0.322266 135.635 2.41657 139.029 6.2053V12.7119H138.461C137.046 8.29958 131.898 4.56248 125.048 4.56248C115.427 4.56248 109.088 11.2971 109.088 19.8981C109.088 28.499 115.427 35.5733 125.615 35.5733C133.481 35.5733 139.084 30.5374 139.084 24.5382H139.764V28.3872C139.764 36.0249 132.917 39.8178 125.108 39.8178C113.393 39.8178 104.564 31.5007 104.564 19.9539V19.9582Z" fill="#F5733D"/>
<path d="M146.206 1.11328H150.734V39.0307H146.206V1.11328Z" fill="#F5733D"/>
<path d="M157.71 27.2561V21.8247H158.389C158.389 29.8021 165.692 35.6894 173.497 35.6894C180.059 35.6894 183.964 32.5758 183.964 28.843C183.964 25.5058 182.038 23.9749 177.402 22.6202L166.878 19.6185C162.182 18.2595 157.994 15.6578 157.994 10.6219C157.994 4.90656 163.537 0.322266 173.217 0.322266C181.595 0.322266 187.65 4.73449 187.65 9.49082V16.0534H186.97C186.97 10.51 181.483 4.45497 172.202 4.45497C165.696 4.45497 162.47 7.39654 162.47 10.5101C162.47 13.056 164.904 14.5268 168.525 15.6019L179.165 18.6595C183.749 19.9625 188.557 22.3923 188.557 28.4474C188.557 34.8422 182.162 39.8221 173.277 39.8221C164.393 39.8221 157.714 36.485 157.714 27.2605L157.71 27.2561Z" fill="#F5733D"/>
<path d="M194.982 1.11328H199.51V39.0307H194.982V1.11328Z" fill="#F5733D"/>
<path d="M205.514 19.9582C205.514 8.81138 214.003 0.322266 225.266 0.322266C236.529 0.322266 245.014 8.81138 245.014 19.9582C245.014 31.1051 236.525 39.8221 225.266 39.8221C214.007 39.8221 205.514 31.2212 205.514 19.9582ZM240.49 19.9582C240.49 11.525 234.435 4.51093 225.266 4.51093C216.097 4.51093 210.042 11.5293 210.042 19.9582C210.042 28.3872 216.097 35.6335 225.266 35.6335C234.435 35.6335 240.49 28.6151 240.49 19.9582Z" fill="#F5733D"/>
<path d="M255.498 3.48853V39.0278H250.97V1.11035H259.175L278.923 36.9894V1.11035H283.451V39.0278H275.074L255.494 3.48853H255.498Z" fill="#F5733D"/>
</svg>
