<svg width="19" height="19" viewBox="0 0 19 19" fill="none" xmlns="http://www.w3.org/2000/svg">
<g id="Group">
<g id="&#38;lt;Repeti&#195;&#131;&#194;&#167;&#195;&#131;&#194;&#163;o radial&#38;gt;">
<path id="Vector" d="M7.42783 16.8854L9.16524 15.148C9.27276 15.0405 9.44893 15.0405 9.55645 15.148L11.2939 16.8854C11.4014 16.9929 11.4014 17.1693 11.2939 17.2768L10.6274 17.9433C10.5414 18.0293 10.4037 18.0509 10.2962 17.9907C9.71566 17.6638 9.00603 17.6638 8.42547 17.9907C8.31796 18.0509 8.18033 18.0336 8.09432 17.9433L7.42783 17.2768C7.32032 17.1693 7.32032 16.9929 7.42783 16.8854Z" fill="#F5733D"/>
</g>
<g id="&#38;lt;Repeti&#195;&#131;&#194;&#167;&#195;&#131;&#194;&#163;o radial&#38;gt;_2">
<path id="Vector_2" d="M2.4738 13.2256H4.93356C5.08838 13.2256 5.20885 13.3504 5.20885 13.5009V15.9607C5.20885 16.1156 5.08407 16.2359 4.93356 16.2359H3.98758C3.86286 16.2359 3.7553 16.1542 3.7209 16.0338C3.54458 15.393 3.0415 14.89 2.40072 14.7136C2.28031 14.6792 2.19851 14.5717 2.19851 14.447V13.5009C2.19851 13.3461 2.32328 13.2256 2.4738 13.2256Z" fill="#F5733D"/>
</g>
<g id="&#38;lt;Repeti&#195;&#131;&#194;&#167;&#195;&#131;&#194;&#163;o radial&#38;gt;_3">
<path id="Vector_3" d="M1.55327 7.13532L3.29068 8.87273C3.39819 8.98025 3.39819 9.15653 3.29068 9.26404L1.55327 11.0015C1.44575 11.109 1.26937 11.109 1.16186 11.0015L0.495364 10.3349C0.409354 10.2488 0.387911 10.1112 0.448118 10.0037C0.774954 9.42315 0.774954 8.71363 0.448118 8.13306C0.387911 8.02555 0.405054 7.88793 0.495364 7.80192L1.16186 7.13532C1.26937 7.02781 1.44575 7.02781 1.55327 7.13532Z" fill="#F5733D"/>
</g>
<g id="&#38;lt;Repeti&#195;&#131;&#194;&#167;&#195;&#131;&#194;&#163;o radial&#38;gt;_4">
<path id="Vector_4" d="M5.20883 2.17753V4.63739C5.20883 4.79221 5.08406 4.91268 4.93354 4.91268H2.47378C2.31897 4.91268 2.19849 4.78791 2.19849 4.63739V3.69131C2.19849 3.56659 2.2803 3.45914 2.40071 3.42473C3.04148 3.24841 3.54456 2.74523 3.72088 2.10445C3.75529 1.98404 3.86285 1.90234 3.98756 1.90234H4.93354C5.08836 1.90234 5.20883 2.02701 5.20883 2.17753Z" fill="#F5733D"/>
</g>
<g id="&#38;lt;Repeti&#195;&#131;&#194;&#167;&#195;&#131;&#194;&#163;o radial&#38;gt;_5">
<path id="Vector_5" d="M11.2983 1.25585L9.56085 2.99326C9.45334 3.10077 9.27695 3.10077 9.16944 2.99326L7.43203 1.25585C7.32452 1.14834 7.32452 0.971951 7.43203 0.864439L8.09873 0.197948C8.18474 0.111938 8.32215 0.0903895 8.42967 0.150596C9.01023 0.477433 9.71985 0.477433 10.3004 0.150596C10.4079 0.0903895 10.5456 0.107638 10.6316 0.197948L11.2983 0.864439C11.4058 0.971951 11.4058 1.14834 11.2983 1.25585Z" fill="#F5733D"/>
</g>
<g id="&#38;lt;Repeti&#195;&#131;&#194;&#167;&#195;&#131;&#194;&#163;o radial&#38;gt;_6">
<path id="Vector_6" d="M16.2567 4.91268H13.797C13.6422 4.91268 13.5217 4.78791 13.5217 4.63739V2.17753C13.5217 2.02271 13.6465 1.90234 13.797 1.90234H14.743C14.8677 1.90234 14.9752 1.98404 15.0096 2.10445C15.186 2.74523 15.689 3.24841 16.3298 3.42473C16.4502 3.45914 16.532 3.56659 16.532 3.69131V4.63739C16.532 4.79221 16.4073 4.91268 16.2567 4.91268Z" fill="#F5733D"/>
</g>
<g id="&#38;lt;Repeti&#195;&#131;&#194;&#167;&#195;&#131;&#194;&#163;o radial&#38;gt;_7">
<path id="Vector_7" d="M17.1772 11.0063L15.4397 9.26892C15.3322 9.16141 15.3322 8.98513 15.4397 8.87762L17.1772 7.1402C17.2847 7.03269 17.4608 7.03269 17.5684 7.1402L18.2351 7.8068C18.3211 7.89281 18.3425 8.03043 18.2823 8.13795C17.9555 8.71851 17.9555 9.42803 18.2823 10.0086C18.3425 10.1161 18.3254 10.2537 18.2351 10.3397L17.5684 11.0063C17.4608 11.1138 17.2847 11.1138 17.1772 11.0063Z" fill="#F5733D"/>
</g>
<g id="&#38;lt;Repeti&#195;&#131;&#194;&#167;&#195;&#131;&#194;&#163;o radial&#38;gt;_8">
<path id="Vector_8" d="M13.5217 15.9607V13.5009C13.5217 13.3461 13.6464 13.2256 13.7969 13.2256H16.2567C16.4115 13.2256 16.532 13.3504 16.532 13.5009V14.447C16.532 14.5717 16.4502 14.6792 16.3298 14.7136C15.689 14.89 15.1859 15.393 15.0096 16.0338C14.9752 16.1542 14.8676 16.2359 14.7429 16.2359H13.7969C13.6421 16.2359 13.5217 16.1113 13.5217 15.9607Z" fill="#F5733D"/>
</g>
</g>
</svg>
