<svg width="352" height="286" viewBox="0 0 352 286" fill="none" xmlns="http://www.w3.org/2000/svg">
<mask id="mask0_300_1537" style="mask-type:alpha" maskUnits="userSpaceOnUse" x="0" y="0" width="352" height="286">
<circle cx="176.053" cy="114.715" r="5.75" fill="#F2EDE8"/>
<circle cx="176.053" cy="86.7637" r="5.75" fill="#F2EDE8"/>
<circle cx="5.75" cy="5.75" r="5.75" transform="matrix(1 0 0 -1 170.303 177.238)" fill="#F2EDE8"/>
<circle cx="5.75" cy="5.75" r="5.75" transform="matrix(1 0 0 -1 170.303 204.873)" fill="#F2EDE8"/>
<circle cx="176.052" cy="143.103" r="6.24731" fill="#F2EDE8"/>
<circle cx="176.053" cy="59.062" r="5.39404" fill="#F2EDE8"/>
<circle cx="176.053" cy="31.3237" r="5.39404" fill="#F2EDE8"/>
<circle cx="5.39404" cy="5.39404" r="5.39404" transform="matrix(1 0 0 -1 170.659 231.795)" fill="#F2EDE8"/>
<circle cx="5.39404" cy="5.39404" r="5.39404" transform="matrix(1 0 0 -1 170.659 259.174)" fill="#F2EDE8"/>
<circle cx="176.052" cy="4.66968" r="4.66968" fill="#F2EDE8"/>
<circle cx="4.66968" cy="4.66968" r="4.66968" transform="matrix(1 0 0 -1 171.383 285.105)" fill="#F2EDE8"/>
<circle cx="146.261" cy="4.66895" r="4.07324" fill="#F2EDE8"/>
<circle cx="4.07324" cy="4.07324" r="4.07324" transform="matrix(1 0 0 -1 142.188 284.51)" fill="#F2EDE8"/>
<circle cx="4.07324" cy="4.07324" r="4.07324" transform="matrix(-1 0 0 1 209.487 0.595703)" fill="#F2EDE8"/>
<circle cx="205.414" cy="280.437" r="4.07324" transform="rotate(180 205.414 280.437)" fill="#F2EDE8"/>
<circle cx="117.323" cy="4.66895" r="3.47559" fill="#F2EDE8"/>
<circle cx="3.47559" cy="3.47559" r="3.47559" transform="matrix(1 0 0 -1 113.848 283.912)" fill="#F2EDE8"/>
<circle cx="3.47559" cy="3.47559" r="3.47559" transform="matrix(-1 0 0 1 237.249 1.19336)" fill="#F2EDE8"/>
<circle cx="233.773" cy="280.437" r="3.47559" transform="rotate(180 233.773 280.437)" fill="#F2EDE8"/>
<circle cx="88.073" cy="4.67017" r="2.87915" fill="#F2EDE8"/>
<circle cx="2.87915" cy="2.87915" r="2.87915" transform="matrix(1 0 0 -1 85.1938 283.314)" fill="#F2EDE8"/>
<circle cx="2.87915" cy="2.87915" r="2.87915" transform="matrix(-1 0 0 1 265.844 1.79102)" fill="#F2EDE8"/>
<circle cx="262.965" cy="280.435" r="2.87915" transform="rotate(180 262.965 280.435)" fill="#F2EDE8"/>
<circle cx="59.0852" cy="4.67017" r="2.28149" fill="#F2EDE8"/>
<circle cx="2.28149" cy="2.28149" r="2.28149" transform="matrix(1 0 0 -1 56.8037 282.717)" fill="#F2EDE8"/>
<circle cx="2.28149" cy="2.28149" r="2.28149" transform="matrix(-1 0 0 1 294.501 2.38867)" fill="#F2EDE8"/>
<circle cx="292.22" cy="280.435" r="2.28149" transform="rotate(180 292.22 280.435)" fill="#F2EDE8"/>
<circle cx="30.0327" cy="4.66895" r="1.72754" fill="#F2EDE8"/>
<circle cx="1.72754" cy="1.72754" r="1.72754" transform="matrix(1 0 0 -1 28.3052 282.164)" fill="#F2EDE8"/>
<circle cx="1.72754" cy="1.72754" r="1.72754" transform="matrix(-1 0 0 1 323.171 2.94141)" fill="#F2EDE8"/>
<circle cx="321.443" cy="280.437" r="1.72754" transform="rotate(180 321.443 280.437)" fill="#F2EDE8"/>
<circle cx="1.1311" cy="4.67017" r="1.1311" fill="#F2EDE8"/>
<circle cx="1.1311" cy="1.1311" r="1.1311" transform="matrix(1 0 0 -1 0 281.566)" fill="#F2EDE8"/>
<circle cx="1.1311" cy="1.1311" r="1.1311" transform="matrix(-1 0 0 1 351.733 3.53906)" fill="#F2EDE8"/>
<circle cx="350.602" cy="280.435" r="1.1311" transform="rotate(180 350.602 280.435)" fill="#F2EDE8"/>
<circle cx="205.414" cy="59.0615" r="4.75488" fill="#F2EDE8"/>
<circle cx="205.414" cy="31.3232" r="4.75488" fill="#F2EDE8"/>
<circle cx="4.75488" cy="4.75488" r="4.75488" transform="matrix(1 0 0 -1 200.659 231.154)" fill="#F2EDE8"/>
<circle cx="4.75488" cy="4.75488" r="4.75488" transform="matrix(1 0 0 -1 200.659 258.535)" fill="#F2EDE8"/>
<circle cx="233.774" cy="59.062" r="3.94482" fill="#F2EDE8"/>
<circle cx="233.774" cy="31.3237" r="3.94482" fill="#F2EDE8"/>
<circle cx="3.94482" cy="3.94482" r="3.94482" transform="matrix(1 0 0 -1 229.829 230.346)" fill="#F2EDE8"/>
<circle cx="3.94482" cy="3.94482" r="3.94482" transform="matrix(1 0 0 -1 229.829 257.725)" fill="#F2EDE8"/>
<circle cx="117.323" cy="59.062" r="3.94482" fill="#F2EDE8"/>
<circle cx="117.323" cy="31.3237" r="3.94482" fill="#F2EDE8"/>
<circle cx="3.94482" cy="3.94482" r="3.94482" transform="matrix(1 0 0 -1 113.378 230.346)" fill="#F2EDE8"/>
<circle cx="3.94482" cy="3.94482" r="3.94482" transform="matrix(1 0 0 -1 113.378 257.725)" fill="#F2EDE8"/>
<circle cx="88.073" cy="59.0623" r="3.17749" fill="#F2EDE8"/>
<circle cx="88.073" cy="31.324" r="3.17749" fill="#F2EDE8"/>
<circle cx="3.17749" cy="3.17749" r="3.17749" transform="matrix(1 0 0 -1 84.8955 229.578)" fill="#F2EDE8"/>
<circle cx="3.17749" cy="3.17749" r="3.17749" transform="matrix(1 0 0 -1 84.8955 256.957)" fill="#F2EDE8"/>
<circle cx="3.17749" cy="3.17749" r="3.17749" transform="matrix(-1 0 0 1 236.951 55.8848)" fill="#F2EDE8"/>
<circle cx="3.17749" cy="3.17749" r="3.17749" transform="matrix(-1 0 0 1 236.951 28.1465)" fill="#F2EDE8"/>
<circle cx="59.0857" cy="59.0632" r="2.4519" fill="#F2EDE8"/>
<circle cx="59.0857" cy="31.323" r="2.4519" fill="#F2EDE8"/>
<circle cx="2.4519" cy="2.4519" r="2.4519" transform="matrix(1 0 0 -1 56.6338 228.852)" fill="#F2EDE8"/>
<circle cx="2.4519" cy="2.4519" r="2.4519" transform="matrix(1 0 0 -1 56.6338 256.232)" fill="#F2EDE8"/>
<circle cx="2.4519" cy="2.4519" r="2.4519" transform="matrix(-1 0 0 1 265.417 56.6113)" fill="#F2EDE8"/>
<circle cx="2.4519" cy="2.4519" r="2.4519" transform="matrix(-1 0 0 1 265.417 28.8711)" fill="#F2EDE8"/>
<circle cx="262.965" cy="226.4" r="2.4519" transform="rotate(180 262.965 226.4)" fill="#F2EDE8"/>
<circle cx="262.965" cy="253.781" r="2.4519" transform="rotate(180 262.965 253.781)" fill="#F2EDE8"/>
<circle cx="30.033" cy="59.0632" r="1.72729" fill="#F2EDE8"/>
<circle cx="30.033" cy="31.323" r="1.72729" fill="#F2EDE8"/>
<circle cx="1.72729" cy="1.72729" r="1.72729" transform="matrix(1 0 0 -1 28.3057 228.127)" fill="#F2EDE8"/>
<circle cx="1.72729" cy="1.72729" r="1.72729" transform="matrix(1 0 0 -1 28.3057 255.508)" fill="#F2EDE8"/>
<circle cx="1.72729" cy="1.72729" r="1.72729" transform="matrix(-1 0 0 1 293.947 57.3359)" fill="#F2EDE8"/>
<circle cx="1.72729" cy="1.72729" r="1.72729" transform="matrix(-1 0 0 1 293.947 29.5957)" fill="#F2EDE8"/>
<circle cx="292.22" cy="226.4" r="1.72729" transform="rotate(180 292.22 226.4)" fill="#F2EDE8"/>
<circle cx="292.22" cy="253.781" r="1.72729" transform="rotate(180 292.22 253.781)" fill="#F2EDE8"/>
<circle cx="1.13086" cy="59.0615" r="0.959961" fill="#F2EDE8"/>
<circle cx="1.13086" cy="31.3232" r="0.959961" fill="#F2EDE8"/>
<circle cx="0.959961" cy="0.959961" r="0.959961" transform="matrix(1 0 0 -1 0.170898 227.359)" fill="#F2EDE8"/>
<circle cx="0.959961" cy="0.959961" r="0.959961" transform="matrix(1 0 0 -1 0.170898 254.74)" fill="#F2EDE8"/>
<circle cx="0.959961" cy="0.959961" r="0.959961" transform="matrix(-1 0 0 1 351.562 58.1016)" fill="#F2EDE8"/>
<circle cx="0.959961" cy="0.959961" r="0.959961" transform="matrix(-1 0 0 1 351.562 30.3633)" fill="#F2EDE8"/>
<circle cx="350.602" cy="226.399" r="0.959961" transform="rotate(180 350.602 226.399)" fill="#F2EDE8"/>
<circle cx="350.602" cy="253.78" r="0.959961" transform="rotate(180 350.602 253.78)" fill="#F2EDE8"/>
<circle cx="0.959961" cy="0.959961" r="0.959961" transform="matrix(-1 0 0 1 322.403 58.1016)" fill="#F2EDE8"/>
<circle cx="0.959961" cy="0.959961" r="0.959961" transform="matrix(-1 0 0 1 322.403 30.3633)" fill="#F2EDE8"/>
<circle cx="321.443" cy="226.399" r="0.959961" transform="rotate(180 321.443 226.399)" fill="#F2EDE8"/>
<circle cx="321.443" cy="253.78" r="0.959961" transform="rotate(180 321.443 253.78)" fill="#F2EDE8"/>
<circle cx="117.323" cy="143.103" r="3.94482" fill="#F2EDE8"/>
<circle cx="88.0732" cy="143.102" r="3.58203" fill="#F2EDE8"/>
<circle cx="3.58203" cy="3.58203" r="3.58203" transform="matrix(-1 0 0 1 266.547 139.52)" fill="#F2EDE8"/>
<circle cx="59.0857" cy="143.103" r="2.64429" fill="#F2EDE8"/>
<circle cx="2.64429" cy="2.64429" r="2.64429" transform="matrix(-1 0 0 1 294.864 140.459)" fill="#F2EDE8"/>
<circle cx="30.033" cy="143.102" r="1.74878" fill="#F2EDE8"/>
<circle cx="1.74878" cy="1.74878" r="1.74878" transform="matrix(-1 0 0 1 323.192 141.354)" fill="#F2EDE8"/>
<circle cx="1.13062" cy="143.103" r="0.853271" fill="#F2EDE8"/>
<circle cx="0.853271" cy="0.853271" r="0.853271" transform="matrix(-1 0 0 1 351.455 142.25)" fill="#F2EDE8"/>
<circle cx="233.774" cy="143.103" r="3.94482" fill="#F2EDE8"/>
<circle cx="146.261" cy="59.0615" r="4.75488" fill="#F2EDE8"/>
<circle cx="146.261" cy="31.3232" r="4.75488" fill="#F2EDE8"/>
<circle cx="4.75488" cy="4.75488" r="4.75488" transform="matrix(1 0 0 -1 141.506 231.154)" fill="#F2EDE8"/>
<circle cx="4.75488" cy="4.75488" r="4.75488" transform="matrix(1 0 0 -1 141.506 258.535)" fill="#F2EDE8"/>
<circle cx="146.261" cy="143.103" r="4.75488" fill="#F2EDE8"/>
<circle cx="205.414" cy="143.103" r="4.75488" fill="#F2EDE8"/>
<circle cx="205.414" cy="114.716" r="5.39404" fill="#F2EDE8"/>
<circle cx="205.414" cy="86.7632" r="5.39404" fill="#F2EDE8"/>
<circle cx="5.39404" cy="5.39404" r="5.39404" transform="matrix(1 0 0 -1 200.02 176.883)" fill="#F2EDE8"/>
<circle cx="5.39404" cy="5.39404" r="5.39404" transform="matrix(1 0 0 -1 200.02 204.516)" fill="#F2EDE8"/>
<circle cx="146.261" cy="114.716" r="5.39404" fill="#F2EDE8"/>
<circle cx="146.261" cy="86.7632" r="5.39404" fill="#F2EDE8"/>
<circle cx="5.39404" cy="5.39404" r="5.39404" transform="matrix(1 0 0 -1 140.867 176.883)" fill="#F2EDE8"/>
<circle cx="5.39404" cy="5.39404" r="5.39404" transform="matrix(1 0 0 -1 140.867 204.516)" fill="#F2EDE8"/>
<circle cx="117.323" cy="114.715" r="4.54126" fill="#F2EDE8"/>
<circle cx="117.323" cy="86.7639" r="4.54126" fill="#F2EDE8"/>
<circle cx="4.54126" cy="4.54126" r="4.54126" transform="matrix(1 0 0 -1 112.782 176.029)" fill="#F2EDE8"/>
<circle cx="4.54126" cy="4.54126" r="4.54126" transform="matrix(1 0 0 -1 112.782 203.664)" fill="#F2EDE8"/>
<circle cx="88.0728" cy="114.716" r="3.646" fill="#F2EDE8"/>
<circle cx="88.0728" cy="86.7632" r="3.646" fill="#F2EDE8"/>
<circle cx="3.646" cy="3.646" r="3.646" transform="matrix(1 0 0 -1 84.4268 175.135)" fill="#F2EDE8"/>
<circle cx="3.646" cy="3.646" r="3.646" transform="matrix(1 0 0 -1 84.4268 202.768)" fill="#F2EDE8"/>
<circle cx="59.0852" cy="114.716" r="2.70825" fill="#F2EDE8"/>
<circle cx="59.0852" cy="86.7629" r="2.70825" fill="#F2EDE8"/>
<circle cx="2.70825" cy="2.70825" r="2.70825" transform="matrix(1 0 0 -1 56.377 174.197)" fill="#F2EDE8"/>
<circle cx="2.70825" cy="2.70825" r="2.70825" transform="matrix(1 0 0 -1 56.377 201.83)" fill="#F2EDE8"/>
<circle cx="2.70825" cy="2.70825" r="2.70825" transform="matrix(-1 0 0 1 265.673 112.008)" fill="#F2EDE8"/>
<circle cx="2.70825" cy="2.70825" r="2.70825" transform="matrix(-1 0 0 1 265.673 84.0547)" fill="#F2EDE8"/>
<circle cx="262.965" cy="171.489" r="2.70825" transform="rotate(180 262.965 171.489)" fill="#F2EDE8"/>
<circle cx="262.965" cy="199.122" r="2.70825" transform="rotate(180 262.965 199.122)" fill="#F2EDE8"/>
<circle cx="30.0325" cy="114.715" r="1.81274" fill="#F2EDE8"/>
<circle cx="30.0325" cy="86.7639" r="1.81274" fill="#F2EDE8"/>
<circle cx="1.81274" cy="1.81274" r="1.81274" transform="matrix(1 0 0 -1 28.2197 173.301)" fill="#F2EDE8"/>
<circle cx="1.81274" cy="1.81274" r="1.81274" transform="matrix(1 0 0 -1 28.2197 200.936)" fill="#F2EDE8"/>
<circle cx="1.81274" cy="1.81274" r="1.81274" transform="matrix(-1 0 0 1 294.033 112.902)" fill="#F2EDE8"/>
<circle cx="1.81274" cy="1.81274" r="1.81274" transform="matrix(-1 0 0 1 294.033 84.9512)" fill="#F2EDE8"/>
<circle cx="292.22" cy="171.488" r="1.81274" transform="rotate(180 292.22 171.488)" fill="#F2EDE8"/>
<circle cx="292.22" cy="199.123" r="1.81274" transform="rotate(180 292.22 199.123)" fill="#F2EDE8"/>
<circle cx="1.1311" cy="114.716" r="0.917236" fill="#F2EDE8"/>
<circle cx="1.1311" cy="86.7629" r="0.917236" fill="#F2EDE8"/>
<circle cx="0.917236" cy="0.917236" r="0.917236" transform="matrix(1 0 0 -1 0.213867 172.406)" fill="#F2EDE8"/>
<circle cx="0.917236" cy="0.917236" r="0.917236" transform="matrix(1 0 0 -1 0.213867 200.039)" fill="#F2EDE8"/>
<circle cx="0.917236" cy="0.917236" r="0.917236" transform="matrix(-1 0 0 1 351.519 113.799)" fill="#F2EDE8"/>
<circle cx="0.917236" cy="0.917236" r="0.917236" transform="matrix(-1 0 0 1 351.519 85.8457)" fill="#F2EDE8"/>
<circle cx="350.602" cy="171.489" r="0.917236" transform="rotate(180 350.602 171.489)" fill="#F2EDE8"/>
<circle cx="350.602" cy="199.122" r="0.917236" transform="rotate(180 350.602 199.122)" fill="#F2EDE8"/>
<circle cx="0.917236" cy="0.917236" r="0.917236" transform="matrix(-1 0 0 1 322.361 113.799)" fill="#F2EDE8"/>
<circle cx="0.917236" cy="0.917236" r="0.917236" transform="matrix(-1 0 0 1 322.361 85.8457)" fill="#F2EDE8"/>
<circle cx="321.444" cy="171.489" r="0.917236" transform="rotate(180 321.444 171.489)" fill="#F2EDE8"/>
<circle cx="321.444" cy="199.122" r="0.917236" transform="rotate(180 321.444 199.122)" fill="#F2EDE8"/>
<circle cx="233.774" cy="114.715" r="4.54126" fill="#F2EDE8"/>
<circle cx="233.774" cy="86.7639" r="4.54126" fill="#F2EDE8"/>
<circle cx="4.54126" cy="4.54126" r="4.54126" transform="matrix(1 0 0 -1 229.232 176.029)" fill="#F2EDE8"/>
<circle cx="4.54126" cy="4.54126" r="4.54126" transform="matrix(1 0 0 -1 229.232 203.664)" fill="#F2EDE8"/>
</mask>
<g mask="url(#mask0_300_1537)">
<path d="M317.935 142.553C317.935 221.283 254.112 285.106 175.383 285.106C96.6527 285.106 32.8296 221.283 32.8296 142.553C32.8296 63.8231 96.6527 0 175.383 0C254.112 0 317.935 63.8231 317.935 142.553Z" fill="#300A0A"/>
</g>
</svg>
