<svg width="25" height="25" viewBox="0 0 25 25" fill="none" xmlns="http://www.w3.org/2000/svg">
<path d="M9.82584 23.3692L12.2294 20.9656C12.3802 20.8148 12.6202 20.8148 12.771 20.9656L15.1745 23.3692C15.3253 23.52 15.3253 23.76 15.1745 23.9108L14.2512 24.834C14.1312 24.9541 13.9435 24.9818 13.7927 24.8956C12.9926 24.4432 12.0109 24.4432 11.2107 24.8956C11.0599 24.9787 10.8722 24.9541 10.7522 24.834L9.82892 23.9108C9.67812 23.76 9.67812 23.52 9.82892 23.3692H9.82584Z" fill="#F2EDE8"/>
<path d="M2.97502 18.3156H6.37259C6.58494 18.3156 6.7542 18.4879 6.7542 18.6972V22.0948C6.7542 22.3071 6.58186 22.4764 6.37259 22.4764H5.06773C4.89539 22.4764 4.74461 22.3625 4.69845 22.1963C4.45225 21.31 3.75975 20.6145 2.87036 20.3683C2.70417 20.3221 2.59033 20.1713 2.59033 19.999V18.6941C2.59033 18.4818 2.76267 18.3125 2.97194 18.3125L2.97502 18.3156Z" fill="#F2EDE8"/>
<path d="M1.70114 9.89517L4.1046 12.2987C4.2554 12.4495 4.2554 12.6895 4.1046 12.8403L1.70114 15.2439C1.55034 15.3947 1.31029 15.3947 1.15949 15.2439L0.236243 14.3206C0.116221 14.2006 0.0884631 14.0129 0.174633 13.8621C0.627025 13.0619 0.627025 12.0802 0.174633 11.28C0.0915406 11.1293 0.116221 10.9415 0.236243 10.8215L1.15949 9.89825C1.31029 9.74746 1.55034 9.74746 1.70114 9.89825V9.89517Z" fill="#F2EDE8"/>
<path d="M6.75453 3.04484V6.44241C6.75453 6.65476 6.5822 6.82402 6.37293 6.82402H2.97536C2.76301 6.82402 2.59375 6.65168 2.59375 6.44241V5.13754C2.59375 4.9652 2.70759 4.81442 2.87378 4.76825C3.76009 4.52205 4.45567 3.82961 4.70187 2.94021C4.74803 2.77402 4.89881 2.66016 5.07115 2.66016H6.37601C6.58835 2.66016 6.75761 2.8325 6.75761 3.04177L6.75453 3.04484Z" fill="#F2EDE8"/>
<path d="M15.1742 1.77092L12.7707 4.17443C12.6199 4.32523 12.3798 4.32523 12.229 4.17443L9.8255 1.77092C9.6747 1.62012 9.6747 1.38007 9.8255 1.22927L10.7487 0.306024C10.8688 0.186002 11.0565 0.15831 11.2073 0.24448C12.0074 0.696872 12.9891 0.696872 13.7893 0.24448C13.9401 0.161387 14.1278 0.186002 14.2478 0.306024L15.1711 1.22927C15.3219 1.38007 15.3219 1.62012 15.1711 1.77092H15.1742Z" fill="#F2EDE8"/>
<path d="M22.0248 6.82387H18.6273C18.4149 6.82387 18.2456 6.65153 18.2456 6.44226V3.04469C18.2456 2.83235 18.418 2.66309 18.6273 2.66309H19.9321C20.1045 2.66309 20.2553 2.77695 20.3014 2.94314C20.5476 3.82946 21.24 4.52496 22.1294 4.77116C22.2956 4.81733 22.4095 4.96813 22.4095 5.14047V6.44532C22.4095 6.65767 22.2371 6.82695 22.0279 6.82695L22.0248 6.82387Z" fill="#F2EDE8"/>
<path d="M23.2989 15.244L20.8953 12.8405C20.7445 12.6897 20.7445 12.4496 20.8953 12.2989L23.2989 9.89532C23.4497 9.74453 23.6897 9.74453 23.8405 9.89532L24.7638 10.8186C24.8838 10.9386 24.9115 11.1263 24.8253 11.2771C24.3729 12.0773 24.3729 13.059 24.8253 13.8591C24.9084 14.0099 24.8838 14.1977 24.7638 14.3177L23.8405 15.2409C23.6897 15.3917 23.4497 15.3917 23.2989 15.2409V15.244Z" fill="#F2EDE8"/>
<path d="M18.2457 22.0946V18.697C18.2457 18.4847 18.4181 18.3154 18.6274 18.3154H22.0249C22.2372 18.3154 22.4065 18.4878 22.4065 18.697V20.0019C22.4065 20.1743 22.2926 20.325 22.1264 20.3712C21.2401 20.6174 20.5446 21.3098 20.2984 22.1992C20.2523 22.3654 20.1015 22.4793 19.9291 22.4793H18.6243C18.4119 22.4793 18.2427 22.307 18.2427 22.0977L18.2457 22.0946Z" fill="#F2EDE8"/>
</svg>
