<svg width="72" height="92" viewBox="0 0 72 92" fill="none" xmlns="http://www.w3.org/2000/svg">
<path id="Vector" d="M0.138916 62.7041V50.0742H1.71899C1.71899 68.6242 18.6989 82.3142 36.8489 82.3142C52.1089 82.3142 61.1887 75.074 61.1887 66.394C61.1887 58.634 56.709 55.0741 45.929 51.9241L21.4587 44.9441C10.5387 41.7841 0.798584 35.7342 0.798584 24.0242C0.798584 10.7342 13.689 0.0742188 36.199 0.0742188C55.679 0.0742188 69.7585 10.334 69.7585 21.394V36.6541H68.179C68.179 23.7641 55.4186 9.68408 33.8386 9.68408C18.7086 9.68408 11.2087 16.5242 11.2087 23.7642C11.2087 29.6842 16.8688 33.1042 25.2888 35.6042L50.0286 42.7141C60.6886 45.7441 71.8689 51.3941 71.8689 65.4741C71.8689 80.3441 56.9986 91.9241 36.3386 91.9241C15.6786 91.9241 0.148682 84.1641 0.148682 62.7141L0.138916 62.7041Z" fill="#F5733D"/>
</svg>
